<?xml version="1.0" encoding="utf-8"?>
<!-- Generator: Adobe Illustrator 24.1.1, SVG Export Plug-In . SVG Version: 6.00 Build 0)  -->
<svg version="1.1" id="Layer_1" xmlns="http://www.w3.org/2000/svg" xmlns:xlink="http://www.w3.org/1999/xlink" x="0px" y="0px"
	 viewBox="0 0 750.5 801.8" style="enable-background:new 0 0 750.5 801.8;" xml:space="preserve">
<style type="text/css">
	.st0{fill:#00B7F4;}
	.st1{opacity:0.2;}
	.st2{fill:none;stroke:#FFFFFF;}
	.st3{fill:none;stroke:#FFFFFF;stroke-width:0.3;}
	.st4{fill:none;stroke:#FFFFFF;stroke-width:0.5;}
	.st5{fill:none;stroke:#00B7F4;stroke-width:3;}
	.st6{fill:none;stroke:#F9F4F4;stroke-width:3;}
	.st7{fill:#F9F4F4;}
	.st8{fill:#FFFFFF;}
	.st9{opacity:0.5;}
	.st10{fill:#F9F7F7;}
</style>
<g>
	<path class="st0" d="M212.1,97.9h-4.7v-9.8h-9.1v9.8h-4.7V75.1h4.7v9.2h9.1v-9.2h4.7V97.9z"/>
	<path class="st0" d="M215.2,89.3c0-1.7,0.3-3.2,1-4.5c0.6-1.3,1.6-2.3,2.8-3.1c1.2-0.7,2.6-1.1,4.2-1.1c2.3,0,4.1,0.7,5.6,2.1
		c1.4,1.4,2.3,3.3,2.4,5.7l0,1.2c0,2.6-0.7,4.7-2.2,6.2s-3.4,2.3-5.8,2.3s-4.4-0.8-5.8-2.3s-2.2-3.7-2.2-6.4V89.3z M219.7,89.6
		c0,1.6,0.3,2.8,0.9,3.7c0.6,0.8,1.5,1.3,2.6,1.3c1.1,0,1.9-0.4,2.6-1.3c0.6-0.8,0.9-2.2,0.9-4c0-1.6-0.3-2.8-0.9-3.7
		c-0.6-0.9-1.5-1.3-2.6-1.3c-1.1,0-2,0.4-2.6,1.3C220,86.5,219.7,87.8,219.7,89.6z"/>
	<path class="st0" d="M248.7,91.7l2.2-10.8h4.4L251,97.9h-3.8L244,87.2l-3.2,10.6H237L232.7,81h4.4l2.2,10.8l3.1-10.8h3.3
		L248.7,91.7z"/>
	<path class="st0" d="M280.2,91.7l2.2-10.8h4.4l-4.3,16.9h-3.8l-3.2-10.6l-3.2,10.6h-3.8L264.2,81h4.4l2.2,10.8l3.1-10.8h3.3
		L280.2,91.7z"/>
	<path class="st0" d="M296.8,98.2c-2.5,0-4.5-0.8-6.1-2.3c-1.6-1.5-2.3-3.5-2.3-6.1v-0.4c0-1.7,0.3-3.2,1-4.6
		c0.7-1.3,1.6-2.4,2.8-3.1c1.2-0.7,2.6-1.1,4.1-1.1c2.3,0,4.1,0.7,5.5,2.2c1.3,1.5,2,3.5,2,6.2v1.8H293c0.1,1.1,0.6,2,1.3,2.7
		c0.7,0.7,1.7,1,2.8,1c1.7,0,3.1-0.6,4.1-1.9l2.2,2.5c-0.7,1-1.6,1.7-2.8,2.2S298.2,98.2,296.8,98.2z M296.3,84.3
		c-0.9,0-1.6,0.3-2.2,0.9s-0.9,1.5-1.1,2.6h6.3v-0.4c0-1-0.3-1.8-0.8-2.3C298,84.6,297.2,84.3,296.3,84.3z"/>
	<path class="st0" d="M321.3,94.6c0.8,0,1.5-0.2,2-0.7c0.5-0.5,0.8-1.1,0.8-1.8h4.2c0,1.1-0.3,2.2-0.9,3.1c-0.6,1-1.5,1.7-2.5,2.2
		c-1.1,0.5-2.3,0.8-3.5,0.8c-2.4,0-4.3-0.8-5.7-2.3c-1.4-1.5-2.1-3.7-2.1-6.4v-0.3c0-2.6,0.7-4.7,2.1-6.2c1.4-1.6,3.3-2.3,5.7-2.3
		c2.1,0,3.8,0.6,5.1,1.8s1.9,2.8,2,4.8h-4.2c0-0.9-0.3-1.6-0.8-2.1c-0.5-0.5-1.2-0.8-2.1-0.8c-1,0-1.9,0.4-2.4,1.2
		c-0.5,0.8-0.8,2-0.8,3.7v0.5c0,1.7,0.3,3,0.8,3.8C319.4,94.2,320.2,94.6,321.3,94.6z"/>
	<path class="st0" d="M340.8,97.9c-0.2-0.4-0.4-0.9-0.5-1.5c-1.1,1.2-2.5,1.8-4.3,1.8c-1.7,0-3-0.5-4.1-1.4c-1.1-1-1.6-2.2-1.6-3.6
		c0-1.8,0.7-3.2,2-4.1s3.3-1.4,5.8-1.5h2.1v-1c0-0.8-0.2-1.4-0.6-1.9s-1-0.7-1.9-0.7c-0.8,0-1.4,0.2-1.8,0.5
		c-0.4,0.4-0.6,0.9-0.6,1.5h-4.5c0-1,0.3-1.9,0.9-2.7c0.6-0.8,1.5-1.5,2.6-2s2.3-0.7,3.7-0.7c2.1,0,3.7,0.5,5,1.6
		c1.2,1.1,1.8,2.5,1.8,4.4V94c0,1.6,0.2,2.8,0.7,3.6v0.3L340.8,97.9L340.8,97.9z M337,94.7c0.7,0,1.3-0.2,1.8-0.4
		c0.6-0.3,1-0.7,1.3-1.2v-2.9h-1.7c-2.3,0-3.5,0.8-3.6,2.3l0,0.3c0,0.6,0.2,1,0.6,1.4C335.8,94.6,336.3,94.7,337,94.7z"/>
	<path class="st0" d="M352.3,81l0.1,2c1.2-1.5,2.8-2.3,4.9-2.3c1.8,0,3.1,0.5,4,1.6c0.9,1.1,1.3,2.6,1.3,4.7v10.9h-4.5V87.1
		c0-1-0.2-1.7-0.6-2.1c-0.4-0.4-1.1-0.6-2.1-0.6c-1.3,0-2.2,0.5-2.9,1.6v11.9H348V81H352.3z"/>
	<path class="st0" d="M378.4,82.8c1.2-1.4,2.7-2.2,4.5-2.2c3.7,0,5.5,2.1,5.6,6.4v10.8H384V87.2c0-1-0.2-1.7-0.6-2.2
		c-0.4-0.5-1.1-0.7-2.1-0.7c-1.3,0-2.3,0.5-2.9,1.5v12h-4.5v-24h4.5L378.4,82.8L378.4,82.8z"/>
	<path class="st0" d="M399.7,98.2c-2.5,0-4.5-0.8-6-2.3c-1.6-1.5-2.3-3.5-2.3-6.1v-0.4c0-1.7,0.3-3.2,1-4.6c0.7-1.3,1.6-2.4,2.8-3.1
		c1.2-0.7,2.6-1.1,4.1-1.1c2.3,0,4.1,0.7,5.5,2.2s2,3.5,2,6.2v1.8h-10.8c0.1,1.1,0.6,2,1.3,2.7s1.7,1,2.8,1c1.7,0,3.1-0.6,4.1-1.9
		l2.2,2.5c-0.7,1-1.6,1.7-2.8,2.2S401.1,98.2,399.7,98.2z M399.2,84.3c-0.9,0-1.6,0.3-2.2,0.9s-0.9,1.5-1.1,2.6h6.3v-0.4
		c0-1-0.3-1.8-0.8-2.3C400.9,84.6,400.1,84.3,399.2,84.3z"/>
	<path class="st0" d="M414,97.9h-4.5v-24h4.5V97.9z"/>
	<path class="st0" d="M432.9,89.6c0,2.6-0.6,4.7-1.8,6.3s-2.8,2.3-4.8,2.3c-1.7,0-3.1-0.6-4.1-1.8v8h-4.5V81h4.2l0.2,1.7
		c1.1-1.3,2.5-2,4.3-2c2.1,0,3.7,0.8,4.9,2.3c1.2,1.5,1.7,3.7,1.7,6.4V89.6z M428.4,89.3c0-1.6-0.3-2.8-0.8-3.6
		c-0.6-0.8-1.4-1.3-2.4-1.3c-1.4,0-2.4,0.5-2.9,1.6v6.9c0.5,1.1,1.5,1.7,3,1.7C427.3,94.6,428.4,92.8,428.4,89.3z"/>
	<path class="st0" d="M450,91.5l3.1-10.5h4.8l-6.8,19.5l-0.4,0.9c-1,2.2-2.7,3.3-5,3.3c-0.7,0-1.3-0.1-2-0.3V101l0.7,0
		c0.9,0,1.5-0.1,1.9-0.4s0.8-0.7,1-1.3l0.5-1.4L442,81h4.9L450,91.5z"/>
	<path class="st0" d="M459,89.3c0-1.7,0.3-3.2,1-4.5c0.6-1.3,1.6-2.3,2.8-3.1c1.2-0.7,2.6-1.1,4.2-1.1c2.3,0,4.1,0.7,5.6,2.1
		c1.4,1.4,2.3,3.3,2.4,5.7l0,1.2c0,2.6-0.7,4.7-2.2,6.2s-3.4,2.3-5.8,2.3s-4.4-0.8-5.8-2.3s-2.2-3.7-2.2-6.4L459,89.3L459,89.3z
		 M463.6,89.6c0,1.6,0.3,2.8,0.9,3.7c0.6,0.8,1.5,1.3,2.6,1.3c1.1,0,2-0.4,2.6-1.3c0.6-0.8,0.9-2.2,0.9-4c0-1.6-0.3-2.8-0.9-3.7
		c-0.6-0.9-1.5-1.3-2.6-1.3c-1.1,0-2,0.4-2.6,1.3C463.9,86.5,463.6,87.8,463.6,89.6z"/>
	<path class="st0" d="M488,96.2c-1.1,1.3-2.7,2-4.6,2c-1.8,0-3.2-0.5-4.1-1.6c-1-1-1.4-2.6-1.5-4.6V81h4.5v10.9
		c0,1.8,0.8,2.6,2.4,2.6c1.5,0,2.6-0.5,3.2-1.6V81h4.5v16.9h-4.3L488,96.2z"/>
	<path class="st0" d="M498.5,93.4c0.8,0,1.4,0.2,1.8,0.7c0.5,0.4,0.7,1,0.7,1.7c0,0.7-0.2,1.3-0.7,1.7c-0.5,0.5-1.1,0.7-1.8,0.7
		c-0.8,0-1.4-0.2-1.8-0.7c-0.5-0.4-0.7-1-0.7-1.7s0.2-1.3,0.7-1.7C497.1,93.6,497.7,93.4,498.5,93.4z M500.3,90.9h-3.8l-0.5-15.8
		h4.8L500.3,90.9z"/>
</g>
<g class="st1">
	<polyline class="st2" points="132.4,184.9 132.4,351.1 563.5,351.3 	"/>
	<line class="st3" x1="132.8" y1="187.4" x2="563.9" y2="187.4"/>
	<line class="st3" x1="132.8" y1="198.3" x2="563.9" y2="198.3"/>
	<line class="st3" x1="132.8" y1="209.3" x2="563.9" y2="209.3"/>
	<line class="st3" x1="132.8" y1="220.2" x2="563.9" y2="220.2"/>
	<line class="st3" x1="132.8" y1="231.1" x2="563.9" y2="231.1"/>
	<line class="st2" x1="132.8" y1="242.1" x2="563.9" y2="242.1"/>
	<line class="st3" x1="132.8" y1="253" x2="563.9" y2="253"/>
	<line class="st3" x1="132.8" y1="263.9" x2="563.9" y2="263.9"/>
	<line class="st3" x1="132.8" y1="274.9" x2="563.9" y2="274.9"/>
	<line class="st3" x1="132.8" y1="285.8" x2="563.9" y2="285.8"/>
	<line class="st2" x1="132.8" y1="296.7" x2="563.9" y2="296.7"/>
	<line class="st3" x1="132.8" y1="307.7" x2="563.9" y2="307.7"/>
	<line class="st3" x1="132.8" y1="318.6" x2="563.9" y2="318.6"/>
	<line class="st3" x1="132.8" y1="329.5" x2="563.9" y2="329.5"/>
	<line class="st3" x1="132.8" y1="340.5" x2="563.9" y2="340.5"/>
	<line class="st2" x1="240.4" y1="187.4" x2="240.4" y2="351.2"/>
	<line class="st2" x1="348.1" y1="187.4" x2="348.1" y2="351.2"/>
	<line class="st2" x1="455.7" y1="187.4" x2="455.7" y2="351.2"/>
	<line class="st4" x1="563.4" y1="187.4" x2="563.4" y2="351.2"/>
</g>
<g>
	<g>
		<line class="st5" x1="132.8" y1="323.6" x2="554.5" y2="190"/>
		<g>
			<polygon class="st0" points="554.6,196.2 562.7,187.4 551,184.8 			"/>
		</g>
	</g>
</g>
<g>
	<g>
		<line class="st6" x1="133.4" y1="323.4" x2="554.2" y2="222.2"/>
		<g>
			<polygon class="st7" points="553.9,228.4 562.5,220.2 551.1,216.8 			"/>
		</g>
	</g>
</g>
<g>
	<path class="st0" d="M580.5,187.2h-3.1v2.1h3.6v1.3h-5.2v-7.8h5.2v1.3h-3.6v1.9h3.1V187.2z"/>
	<path class="st0" d="M584.1,186.5l1-1.7h1.7l-1.7,2.9l1.7,3h-1.7l-1-1.8l-1,1.8h-1.7l1.7-3l-1.7-2.9h1.7L584.1,186.5z"/>
	<path class="st0" d="M590.2,190.7c-0.8,0-1.5-0.3-2.1-0.8c-0.5-0.5-0.8-1.2-0.8-2.1v-0.1c0-0.6,0.1-1.1,0.3-1.6
		c0.2-0.5,0.5-0.8,1-1.1c0.4-0.3,0.9-0.4,1.4-0.4c0.8,0,1.4,0.3,1.9,0.8s0.7,1.2,0.7,2.1v0.6h-3.7c0,0.4,0.2,0.7,0.5,0.9
		c0.3,0.2,0.6,0.3,1,0.3c0.6,0,1.1-0.2,1.4-0.7l0.8,0.9c-0.2,0.3-0.5,0.6-1,0.8C591.1,190.6,590.7,190.7,590.2,190.7z M590,185.9
		c-0.3,0-0.6,0.1-0.8,0.3c-0.2,0.2-0.3,0.5-0.4,0.9h2.2V187c0-0.3-0.1-0.6-0.3-0.8C590.6,186,590.3,185.9,590,185.9z"/>
	<path class="st0" d="M596.7,186.2c-0.2,0-0.4,0-0.6,0c-0.6,0-1,0.2-1.2,0.6v3.8h-1.5v-5.8h1.5l0,0.7c0.3-0.5,0.7-0.8,1.3-0.8
		c0.2,0,0.3,0,0.5,0.1L596.7,186.2z"/>
	<path class="st0" d="M599.8,189.4c0.3,0,0.5-0.1,0.7-0.2c0.2-0.2,0.3-0.4,0.3-0.6h1.5c0,0.4-0.1,0.8-0.3,1.1s-0.5,0.6-0.9,0.8
		c-0.4,0.2-0.8,0.3-1.2,0.3c-0.8,0-1.5-0.3-2-0.8s-0.7-1.3-0.7-2.2v-0.1c0-0.9,0.2-1.6,0.7-2.1c0.5-0.5,1.1-0.8,2-0.8
		c0.7,0,1.3,0.2,1.8,0.6s0.7,1,0.7,1.6h-1.5c0-0.3-0.1-0.6-0.3-0.7c-0.2-0.2-0.4-0.3-0.7-0.3c-0.4,0-0.6,0.1-0.8,0.4
		s-0.3,0.7-0.3,1.3v0.2c0,0.6,0.1,1,0.3,1.3C599.1,189.3,599.4,189.4,599.8,189.4z"/>
	<path class="st0" d="M603.1,183.2c0-0.2,0.1-0.4,0.2-0.6c0.2-0.1,0.4-0.2,0.6-0.2c0.3,0,0.5,0.1,0.6,0.2c0.2,0.2,0.2,0.3,0.2,0.6
		c0,0.2-0.1,0.4-0.2,0.6c-0.2,0.1-0.4,0.2-0.6,0.2s-0.5-0.1-0.6-0.2C603.2,183.7,603.1,183.5,603.1,183.2z M604.7,190.6h-1.6v-5.8
		h1.6V190.6z"/>
	<path class="st0" d="M609.2,189c0-0.2-0.1-0.3-0.3-0.4s-0.5-0.2-0.9-0.3c-1.4-0.3-2.1-0.9-2.1-1.8c0-0.5,0.2-0.9,0.6-1.3
		c0.4-0.4,1-0.5,1.7-0.5c0.7,0,1.3,0.2,1.8,0.5c0.4,0.3,0.7,0.8,0.7,1.3h-1.5c0-0.2-0.1-0.4-0.2-0.6c-0.1-0.1-0.4-0.2-0.7-0.2
		c-0.3,0-0.5,0.1-0.6,0.2c-0.1,0.1-0.2,0.3-0.2,0.4c0,0.2,0.1,0.3,0.2,0.4s0.4,0.2,0.8,0.3c0.4,0.1,0.7,0.2,1,0.3
		c0.8,0.3,1.2,0.8,1.2,1.6c0,0.5-0.2,1-0.7,1.3s-1,0.5-1.8,0.5c-0.5,0-0.9-0.1-1.3-0.3c-0.4-0.2-0.7-0.4-0.9-0.7
		c-0.2-0.3-0.3-0.6-0.3-1h1.5c0,0.3,0.1,0.5,0.3,0.6c0.2,0.1,0.4,0.2,0.8,0.2c0.3,0,0.5-0.1,0.7-0.2
		C609.1,189.3,609.2,189.1,609.2,189z"/>
	<path class="st0" d="M614.3,190.7c-0.8,0-1.5-0.3-2.1-0.8c-0.5-0.5-0.8-1.2-0.8-2.1v-0.1c0-0.6,0.1-1.1,0.3-1.6
		c0.2-0.5,0.5-0.8,1-1.1c0.4-0.3,0.9-0.4,1.4-0.4c0.8,0,1.4,0.3,1.9,0.8s0.7,1.2,0.7,2.1v0.6H613c0,0.4,0.2,0.7,0.5,0.9
		c0.3,0.2,0.6,0.3,1,0.3c0.6,0,1.1-0.2,1.4-0.7l0.8,0.9c-0.2,0.3-0.5,0.6-1,0.8C615.3,190.6,614.8,190.7,614.3,190.7z M614.2,185.9
		c-0.3,0-0.6,0.1-0.8,0.3c-0.2,0.2-0.3,0.5-0.4,0.9h2.2V187c0-0.3-0.1-0.6-0.3-0.8C614.8,186,614.5,185.9,614.2,185.9z"/>
	<path class="st0" d="M626,184h-2.4v6.5H622V184h-2.4v-1.3h6.4V184z"/>
	<path class="st0" d="M625.5,187.6c0-0.6,0.1-1.1,0.3-1.5c0.2-0.4,0.5-0.8,1-1.1s0.9-0.4,1.5-0.4c0.8,0,1.4,0.2,1.9,0.7
		c0.5,0.5,0.8,1.1,0.8,2l0,0.4c0,0.9-0.3,1.6-0.8,2.1c-0.5,0.5-1.2,0.8-2,0.8s-1.5-0.3-2-0.8C625.7,189.3,625.5,188.6,625.5,187.6
		L625.5,187.6L625.5,187.6z M627,187.7c0,0.6,0.1,1,0.3,1.3c0.2,0.3,0.5,0.4,0.9,0.4c0.4,0,0.7-0.1,0.9-0.4c0.2-0.3,0.3-0.8,0.3-1.4
		c0-0.5-0.1-1-0.3-1.3s-0.5-0.4-0.9-0.4s-0.7,0.2-0.9,0.4C627.1,186.6,627,187.1,627,187.7z"/>
	<path class="st0" d="M631.7,187.6c0-0.9,0.2-1.6,0.6-2.2c0.4-0.5,1-0.8,1.7-0.8c0.6,0,1,0.2,1.4,0.6v-3h1.6v8.3h-1.4l-0.1-0.6
		c-0.4,0.5-0.9,0.7-1.5,0.7c-0.7,0-1.2-0.3-1.7-0.8C631.9,189.3,631.7,188.6,631.7,187.6z M633.3,187.7c0,0.5,0.1,1,0.3,1.3
		c0.2,0.3,0.5,0.4,0.8,0.4c0.5,0,0.8-0.2,1-0.6v-2.3c-0.2-0.4-0.5-0.6-1-0.6C633.6,185.9,633.3,186.5,633.3,187.7z"/>
	<path class="st0" d="M641.5,190.6c-0.1-0.1-0.1-0.3-0.2-0.5c-0.4,0.4-0.9,0.6-1.5,0.6c-0.6,0-1-0.2-1.4-0.5
		c-0.4-0.3-0.6-0.7-0.6-1.3c0-0.6,0.2-1.1,0.7-1.4c0.5-0.3,1.1-0.5,2-0.5h0.7v-0.3c0-0.3-0.1-0.5-0.2-0.6c-0.1-0.2-0.4-0.2-0.7-0.2
		c-0.3,0-0.5,0.1-0.6,0.2s-0.2,0.3-0.2,0.5H638c0-0.3,0.1-0.7,0.3-0.9c0.2-0.3,0.5-0.5,0.9-0.7s0.8-0.2,1.3-0.2
		c0.7,0,1.3,0.2,1.7,0.5c0.4,0.4,0.6,0.9,0.6,1.5v2.5c0,0.6,0.1,1,0.2,1.3v0.1L641.5,190.6L641.5,190.6z M640.2,189.5
		c0.2,0,0.4-0.1,0.6-0.2c0.2-0.1,0.3-0.2,0.4-0.4v-1h-0.6c-0.8,0-1.2,0.3-1.2,0.8v0.1c0,0.2,0.1,0.4,0.2,0.5
		C639.8,189.4,640,189.5,640.2,189.5z"/>
	<path class="st0" d="M646.2,188.4l1.1-3.6h1.7l-2.3,6.7l-0.1,0.3c-0.3,0.8-0.9,1.1-1.7,1.1c-0.2,0-0.5,0-0.7-0.1v-1.2l0.2,0
		c0.3,0,0.5,0,0.7-0.1c0.1-0.1,0.3-0.2,0.3-0.4l0.2-0.5l-2-5.8h1.7L646.2,188.4z"/>
</g>
<g>
	<path class="st8" d="M581.9,221.3l1-5.6h1.6l-1.7,7.8h-1.6l-1.3-5.2l-1.3,5.2h-1.6l-1.7-7.8h1.6l1.1,5.6l1.3-5.6h1.4L581.9,221.3z"
		/>
	<path class="st8" d="M588.5,223.6c-0.1-0.1-0.1-0.3-0.2-0.5c-0.4,0.4-0.9,0.6-1.5,0.6c-0.6,0-1-0.2-1.4-0.5s-0.6-0.7-0.6-1.3
		c0-0.6,0.2-1.1,0.7-1.4c0.5-0.3,1.1-0.5,2-0.5h0.7v-0.3c0-0.3-0.1-0.5-0.2-0.6s-0.4-0.2-0.7-0.2c-0.3,0-0.5,0.1-0.6,0.2
		c-0.2,0.1-0.2,0.3-0.2,0.5h-1.5c0-0.3,0.1-0.6,0.3-0.9c0.2-0.3,0.5-0.5,0.9-0.7s0.8-0.2,1.3-0.2c0.7,0,1.3,0.2,1.7,0.5
		c0.4,0.4,0.6,0.9,0.6,1.5v2.5c0,0.6,0.1,1,0.2,1.3v0.1L588.5,223.6L588.5,223.6z M587.3,222.5c0.2,0,0.4-0.1,0.6-0.1
		c0.2-0.1,0.3-0.2,0.4-0.4v-1h-0.6c-0.8,0-1.2,0.3-1.2,0.8l0,0.1c0,0.2,0.1,0.4,0.2,0.5C586.8,222.4,587,222.5,587.3,222.5z"/>
	<path class="st8" d="M591.1,216.2c0-0.2,0.1-0.4,0.2-0.6c0.2-0.1,0.4-0.2,0.6-0.2s0.5,0.1,0.6,0.2c0.2,0.1,0.2,0.3,0.2,0.6
		c0,0.2-0.1,0.4-0.2,0.6c-0.2,0.1-0.4,0.2-0.6,0.2s-0.5-0.1-0.6-0.2S591.1,216.5,591.1,216.2z M592.7,223.6h-1.6v-5.8h1.6V223.6z"/>
	<path class="st8" d="M595.8,216.3v1.4h1v1.1h-1v2.9c0,0.2,0,0.4,0.1,0.5c0.1,0.1,0.2,0.1,0.5,0.1c0.2,0,0.3,0,0.5,0v1.2
		c-0.3,0.1-0.6,0.1-0.9,0.1c-1.1,0-1.6-0.6-1.7-1.6v-3.1h-0.8v-1.1h0.8v-1.4H595.8z"/>
	<path class="st8" d="M606.5,215.7v5.1c0,0.9-0.3,1.5-0.8,2s-1.3,0.8-2.2,0.8c-0.9,0-1.6-0.2-2.2-0.7s-0.8-1.1-0.8-2v-5.2h1.6v5.2
		c0,0.5,0.1,0.9,0.4,1.1s0.6,0.4,1,0.4c0.9,0,1.4-0.5,1.4-1.4v-5.2H606.5z"/>
	<path class="st8" d="M609.1,217.7l0,0.7c0.4-0.5,1-0.8,1.7-0.8c0.6,0,1.1,0.2,1.4,0.5s0.5,0.9,0.5,1.6v3.8h-1.5v-3.7
		c0-0.3-0.1-0.6-0.2-0.7s-0.4-0.2-0.7-0.2c-0.4,0-0.8,0.2-1,0.6v4.1h-1.5v-5.8L609.1,217.7L609.1,217.7z"/>
	<path class="st8" d="M613.8,216.2c0-0.2,0.1-0.4,0.2-0.6c0.2-0.1,0.4-0.2,0.6-0.2s0.5,0.1,0.6,0.2c0.2,0.1,0.2,0.3,0.2,0.6
		c0,0.2-0.1,0.4-0.2,0.6c-0.2,0.1-0.4,0.2-0.6,0.2s-0.5-0.1-0.6-0.2S613.8,216.5,613.8,216.2z M615.5,223.6h-1.6v-5.8h1.6V223.6z"/>
	<path class="st8" d="M618.6,216.3v1.4h1v1.1h-1v2.9c0,0.2,0,0.4,0.1,0.5c0.1,0.1,0.2,0.1,0.5,0.1c0.2,0,0.3,0,0.5,0v1.2
		c-0.3,0.1-0.6,0.1-0.9,0.1c-1.1,0-1.6-0.6-1.7-1.6v-3.1h-0.8v-1.1h0.8v-1.4H618.6z"/>
	<path class="st8" d="M628,220.2h-3.1v2.1h3.6v1.3h-5.2v-7.8h5.2v1.3h-3.6v1.9h3.1V220.2z"/>
	<path class="st8" d="M631.6,219.5l1-1.7h1.7l-1.7,2.9l1.7,3h-1.7l-1-1.8l-1,1.8h-1.7l1.7-3l-1.7-2.9h1.7L631.6,219.5z"/>
	<path class="st8" d="M635,216.2c0-0.2,0.1-0.4,0.2-0.6c0.2-0.1,0.4-0.2,0.6-0.2c0.3,0,0.5,0.1,0.6,0.2c0.2,0.1,0.2,0.3,0.2,0.6
		c0,0.2-0.1,0.4-0.2,0.6s-0.4,0.2-0.6,0.2s-0.5-0.1-0.6-0.2C635.1,216.7,635,216.5,635,216.2z M636.6,223.6h-1.6v-5.8h1.6V223.6z"/>
	<path class="st8" d="M639.8,216.3v1.4h1v1.1h-1v2.9c0,0.2,0,0.4,0.1,0.5c0.1,0.1,0.2,0.1,0.5,0.1c0.2,0,0.3,0,0.5,0v1.2
		c-0.3,0.1-0.6,0.1-0.9,0.1c-1.1,0-1.6-0.6-1.7-1.6v-3.1h-0.8v-1.1h0.8v-1.4H639.8z"/>
</g>
<g>
	<path class="st8" d="M75.2,349.1v3.3l1.9,0.6v2l-9.2-3.4v-1.8l9.2-3.5v2L75.2,349.1z M73.7,351.9v-2.3l-3.5,1.2L73.7,351.9z"/>
	<path class="st8" d="M73.3,340v3.7h3.8v1.9h-9.2v-6h1.5v4.1h2.4V340L73.3,340L73.3,340z"/>
	<path class="st8" d="M69.4,331.3v2.8h7.7v1.9h-7.7v2.8h-1.5v-7.5L69.4,331.3L69.4,331.3z"/>
	<path class="st8" d="M73.1,324.7v3.7h2.5v-4.3h1.5v6.2h-9.3v-6.2h1.5v4.3h2.2v-3.7L73.1,324.7L73.1,324.7z"/>
	<path class="st8" d="M73.7,319.5v1.5h3.4v1.9h-9.2v-3.4c0-1.1,0.2-1.9,0.7-2.5c0.5-0.6,1.2-0.9,2.1-0.9c0.6,0,1.2,0.1,1.6,0.4
		c0.4,0.3,0.8,0.7,1,1.2l3.8-2h0.1v2L73.7,319.5z M72.2,321v-1.5c0-0.5-0.1-0.9-0.4-1.1c-0.2-0.3-0.6-0.4-1-0.4
		c-0.4,0-0.8,0.1-1,0.4s-0.4,0.6-0.4,1.1v1.5L72.2,321L72.2,321z"/>
	<path class="st8" d="M73.9,311.2v3.6h-1.5v-3.6H73.9z"/>
	<path class="st8" d="M69.4,302.7v2.8h7.7v1.9h-7.7v2.8h-1.5v-7.5L69.4,302.7L69.4,302.7z"/>
	<path class="st8" d="M75.2,297.1v3.3l1.9,0.6v2l-9.2-3.4v-1.8l9.2-3.5v2L75.2,297.1z M73.7,299.9v-2.3l-3.5,1.2L73.7,299.9z"/>
	<path class="st8" d="M71.1,290.3l-3.2-1.7v-2.2l4.6,2.7l4.7-2.8v2.2l-3.2,1.8l3.2,1.8v2.2l-4.7-2.8l-4.6,2.7V292L71.1,290.3z"/>
	<path class="st8" d="M73.9,280.2h3.3v1.9h-9.2v-3.6c0-0.7,0.1-1.3,0.4-1.8s0.6-0.9,1.1-1.2c0.5-0.3,1-0.4,1.6-0.4
		c0.9,0,1.6,0.3,2.1,0.9c0.5,0.6,0.8,1.5,0.8,2.6C73.9,278.5,73.9,280.2,73.9,280.2z M72.3,280.2v-1.7c0-0.5-0.1-0.9-0.4-1.1
		c-0.2-0.3-0.6-0.4-1-0.4c-0.4,0-0.8,0.1-1.1,0.4s-0.4,0.6-0.4,1.1v1.8L72.3,280.2L72.3,280.2z"/>
	<path class="st8" d="M72.7,266.1c0.9,0,1.7,0.2,2.4,0.5c0.7,0.3,1.2,0.8,1.6,1.4c0.4,0.6,0.6,1.3,0.6,2.1c0,0.8-0.2,1.5-0.6,2.1
		c-0.4,0.6-0.9,1.1-1.6,1.4c-0.7,0.3-1.5,0.5-2.4,0.5h-0.5c-0.9,0-1.7-0.2-2.4-0.5c-0.7-0.3-1.2-0.8-1.6-1.4s-0.6-1.3-0.6-2.1
		c0-0.8,0.2-1.4,0.6-2s0.9-1.1,1.6-1.4c0.7-0.3,1.5-0.5,2.4-0.5L72.7,266.1L72.7,266.1z M72.3,268c-1,0-1.7,0.2-2.2,0.5
		s-0.8,0.8-0.8,1.5c0,0.6,0.3,1.1,0.8,1.5c0.5,0.4,1.2,0.5,2.2,0.5h0.5c0.9,0,1.7-0.2,2.2-0.5c0.5-0.4,0.8-0.9,0.8-1.5
		c0-0.6-0.3-1.1-0.8-1.5s-1.2-0.5-2.2-0.5L72.3,268L72.3,268z"/>
	<path class="st8" d="M74.7,259.9c-0.4,0-0.6,0.1-0.8,0.4c-0.2,0.3-0.4,0.7-0.6,1.4c-0.2,0.7-0.4,1.2-0.6,1.6
		c-0.6,1-1.3,1.6-2.3,1.6c-0.5,0-0.9-0.1-1.3-0.4c-0.4-0.3-0.7-0.7-0.9-1.2c-0.2-0.5-0.3-1.1-0.3-1.8c0-0.7,0.1-1.3,0.4-1.8
		c0.2-0.5,0.6-0.9,1-1.2c0.4-0.3,0.9-0.4,1.5-0.4v1.9c-0.4,0-0.8,0.1-1,0.4c-0.2,0.3-0.3,0.6-0.3,1.1c0,0.5,0.1,0.8,0.3,1.1
		c0.2,0.3,0.5,0.4,0.8,0.4c0.3,0,0.6-0.1,0.8-0.5c0.2-0.3,0.4-0.8,0.6-1.3c0.3-1.1,0.7-1.9,1.2-2.4c0.5-0.5,1.1-0.7,1.8-0.7
		c0.8,0,1.4,0.3,1.9,0.9c0.5,0.6,0.7,1.4,0.7,2.4c0,0.7-0.1,1.4-0.4,1.9c-0.3,0.6-0.6,1-1.1,1.3c-0.5,0.3-1,0.5-1.6,0.5v-1.9
		c1,0,1.5-0.6,1.5-1.8c0-0.5-0.1-0.8-0.3-1.1C75.3,260.1,75,259.9,74.7,259.9z"/>
	<path class="st8" d="M77.1,254.7v1.9h-9.2v-1.9H77.1z"/>
	<path class="st8" d="M69.4,246v2.8h7.7v1.9h-7.7v2.8h-1.5V246L69.4,246L69.4,246z"/>
	<path class="st8" d="M77.1,242.9v1.9h-9.2v-1.9H77.1z"/>
	<path class="st8" d="M72.7,233.5c0.9,0,1.7,0.2,2.4,0.5s1.2,0.8,1.6,1.4c0.4,0.6,0.6,1.3,0.6,2.1s-0.2,1.4-0.6,2.1
		c-0.4,0.6-0.9,1.1-1.6,1.4c-0.7,0.3-1.5,0.5-2.4,0.5h-0.5c-0.9,0-1.7-0.2-2.4-0.5c-0.7-0.3-1.2-0.8-1.6-1.4s-0.6-1.3-0.6-2.1
		s0.2-1.4,0.6-2.1s0.9-1.1,1.6-1.4c0.7-0.3,1.5-0.5,2.4-0.5L72.7,233.5L72.7,233.5z M72.3,235.4c-1,0-1.7,0.2-2.2,0.5
		s-0.8,0.8-0.8,1.5c0,0.6,0.3,1.1,0.8,1.5c0.5,0.4,1.2,0.5,2.2,0.5h0.5c0.9,0,1.7-0.2,2.2-0.5c0.5-0.4,0.8-0.9,0.8-1.5
		c0-0.6-0.3-1.1-0.8-1.5s-1.2-0.5-2.2-0.5L72.3,235.4L72.3,235.4z"/>
	<path class="st8" d="M77.1,224.6v1.9l-6.1,3.7h6.1v1.9h-9.2v-1.9l6.1-3.7h-6.1v-1.9H77.1z"/>
	<path class="st8" d="M74.8,216.3l-7-2.1v-2.1l9.2,3.2v2l-9.2,3.2v-2.1L74.8,216.3z"/>
	<path class="st8" d="M75.2,206.5v3.3l1.9,0.6v2l-9.2-3.4v-1.8l9.2-3.5v2L75.2,206.5z M73.7,209.3V207l-3.5,1.2L73.7,209.3z"/>
	<path class="st8" d="M75.6,201v-4h1.5v5.9h-9.2v-1.9L75.6,201L75.6,201z"/>
	<path class="st8" d="M67.9,189.1H74c1,0,1.8,0.3,2.4,0.9c0.6,0.6,0.9,1.5,0.9,2.6c0,1.1-0.3,1.9-0.9,2.6c-0.6,0.6-1.4,1-2.3,1h-6.2
		v-1.9H74c0.6,0,1.1-0.1,1.3-0.4c0.3-0.3,0.4-0.7,0.4-1.2c0-1.1-0.6-1.6-1.7-1.6h-6.2V189.1z"/>
	<path class="st8" d="M73.1,181.9v3.7h2.5v-4.3h1.5v6.2h-9.3v-6.2h1.5v4.3h2.2V182L73.1,181.9L73.1,181.9z"/>
</g>
<g>
	<path class="st8" d="M288.6,396c0-0.4-0.1-0.6-0.4-0.8c-0.3-0.2-0.7-0.4-1.4-0.6c-0.7-0.2-1.2-0.4-1.6-0.6
		c-1.1-0.6-1.6-1.3-1.6-2.3c0-0.5,0.1-0.9,0.4-1.3c0.3-0.4,0.7-0.7,1.2-0.9c0.5-0.2,1.1-0.3,1.8-0.3c0.7,0,1.3,0.1,1.8,0.4
		c0.5,0.2,0.9,0.6,1.2,1c0.3,0.4,0.4,0.9,0.4,1.5h-1.9c0-0.4-0.1-0.8-0.4-1c-0.3-0.2-0.6-0.4-1.1-0.4c-0.5,0-0.8,0.1-1.1,0.3
		c-0.3,0.2-0.4,0.5-0.4,0.8c0,0.3,0.1,0.5,0.4,0.8c0.3,0.2,0.8,0.4,1.3,0.6c1.1,0.3,1.9,0.7,2.4,1.2s0.7,1.1,0.7,1.8
		c0,0.8-0.3,1.4-0.9,1.9c-0.6,0.5-1.4,0.7-2.4,0.7c-0.7,0-1.4-0.1-1.9-0.4c-0.6-0.3-1-0.6-1.3-1.1s-0.5-1-0.5-1.6h1.9
		c0,1,0.6,1.5,1.8,1.5c0.4,0,0.8-0.1,1.1-0.3C288.5,396.6,288.6,396.4,288.6,396z"/>
	<path class="st8" d="M299.3,398.5h-1.9v-4h-3.7v4h-1.9v-9.2h1.9v3.8h3.7v-3.8h1.9V398.5z"/>
	<path class="st8" d="M306.3,396.6H303l-0.6,1.9h-2l3.4-9.2h1.8l3.5,9.2h-2L306.3,396.6z M303.5,395h2.3l-1.2-3.5L303.5,395z"/>
	<path class="st8" d="M313.2,395.1h-1.5v3.4h-1.9v-9.2h3.4c1.1,0,1.9,0.2,2.5,0.7s0.9,1.2,0.9,2.1c0,0.6-0.1,1.2-0.4,1.6
		c-0.3,0.4-0.7,0.8-1.2,1l2,3.8v0.1h-2L313.2,395.1z M311.7,393.5h1.5c0.5,0,0.9-0.1,1.1-0.4c0.3-0.2,0.4-0.6,0.4-1
		c0-0.4-0.1-0.8-0.4-1s-0.6-0.4-1.1-0.4h-1.5V393.5z"/>
	<path class="st8" d="M323.7,394.5H320v2.5h4.3v1.5h-6.2v-9.2h6.2v1.5H320v2.2h3.7L323.7,394.5L323.7,394.5z"/>
	<path class="st8" d="M330.6,395.2v3.3h-1.9v-9.2h3.6c0.7,0,1.3,0.1,1.8,0.4s0.9,0.6,1.2,1.1c0.3,0.5,0.4,1,0.4,1.6
		c0,0.9-0.3,1.6-0.9,2.1c-0.6,0.5-1.5,0.8-2.6,0.8L330.6,395.2L330.6,395.2z M330.6,393.7h1.7c0.5,0,0.9-0.1,1.1-0.4
		c0.3-0.2,0.4-0.6,0.4-1c0-0.5-0.1-0.8-0.4-1.1s-0.6-0.4-1.1-0.4h-1.8V393.7z"/>
	<path class="st8" d="M340.5,395.1H339v3.4h-1.9v-9.2h3.4c1.1,0,1.9,0.2,2.5,0.7s0.9,1.2,0.9,2.1c0,0.6-0.1,1.2-0.4,1.6
		c-0.3,0.4-0.7,0.8-1.2,1l2,3.8v0.1h-2L340.5,395.1z M339,393.5h1.5c0.5,0,0.9-0.1,1.1-0.4c0.3-0.2,0.4-0.6,0.4-1
		c0-0.4-0.1-0.8-0.4-1s-0.6-0.4-1.1-0.4H339V393.5z"/>
	<path class="st8" d="M347.4,398.5h-1.9v-9.2h1.9V398.5z"/>
	<path class="st8" d="M356.4,395.4c-0.1,1-0.4,1.8-1.1,2.4s-1.5,0.9-2.6,0.9c-1.2,0-2.1-0.4-2.8-1.2c-0.7-0.8-1-1.9-1-3.3v-0.6
		c0-0.9,0.2-1.7,0.5-2.4s0.8-1.2,1.3-1.6s1.3-0.5,2-0.5c1.1,0,1.9,0.3,2.6,0.9s1,1.4,1.1,2.4h-1.9c0-0.6-0.2-1-0.5-1.3
		s-0.7-0.4-1.3-0.4c-0.6,0-1.1,0.2-1.4,0.7c-0.3,0.5-0.5,1.2-0.5,2.1v0.7c0,1,0.1,1.7,0.5,2.2c0.3,0.5,0.8,0.7,1.4,0.7
		c0.6,0,1-0.1,1.3-0.4s0.5-0.7,0.5-1.3L356.4,395.4L356.4,395.4z"/>
	<path class="st8" d="M363.2,394.5h-3.7v2.5h4.3v1.5h-6.2v-9.2h6.2v1.5h-4.3v2.2h3.7L363.2,394.5L363.2,394.5z"/>
	<path class="st8" d="M373.4,396.6h-3.3l-0.6,1.9h-2l3.4-9.2h1.8l3.5,9.2h-2L373.4,396.6z M370.6,395h2.3l-1.2-3.5L370.6,395z"/>
	<path class="st8" d="M383.1,390.8h-2.8v7.7h-1.9v-7.7h-2.8v-1.5h7.5L383.1,390.8L383.1,390.8z"/>
	<path class="st8" d="M392.6,394.5H389v2.5h4.3v1.5h-6.2v-9.2h6.2v1.5H389v2.2h3.7L392.6,394.5L392.6,394.5z"/>
	<path class="st8" d="M397.7,392.4l1.7-3.2h2.2l-2.7,4.6l2.8,4.7h-2.2l-1.8-3.2l-1.8,3.2h-2.2l2.8-4.7l-2.7-4.6h2.2L397.7,392.4z"/>
	<path class="st8" d="M404.7,398.5h-1.9v-9.2h1.9V398.5z"/>
	<path class="st8" d="M413.4,390.8h-2.8v7.7h-1.9v-7.7h-2.8v-1.5h7.5L413.4,390.8L413.4,390.8z"/>
</g>
<g class="st9">
	<g>
		<path class="st8" d="M128.7,370.5V368c-0.8-0.2-1.3-0.5-1.7-1s-0.5-1-0.5-1.6c0-0.6,0.2-1.2,0.6-1.6c0.4-0.4,0.9-0.7,1.6-0.8v-0.6
			h0.9v0.6c0.6,0.1,1.1,0.3,1.5,0.6s0.6,0.8,0.7,1.4l-1.5,0.2c-0.1-0.5-0.3-0.8-0.7-0.9v2.3c0.9,0.3,1.6,0.6,1.9,1
			c0.3,0.4,0.5,0.9,0.5,1.6c0,0.7-0.2,1.3-0.6,1.8c-0.4,0.5-1,0.8-1.8,0.9v1.1h-0.8v-1.1c-0.7-0.1-1.2-0.3-1.7-0.8s-0.7-1-0.8-1.8
			l1.5-0.2c0.1,0.3,0.2,0.6,0.4,0.8C128.3,370.2,128.5,370.4,128.7,370.5z M128.7,364.3c-0.2,0.1-0.4,0.2-0.5,0.4s-0.2,0.4-0.2,0.6
			c0,0.2,0.1,0.4,0.2,0.6c0.1,0.2,0.3,0.3,0.6,0.4V364.3z M129.6,370.6c0.3,0,0.5-0.2,0.7-0.4c0.2-0.2,0.3-0.5,0.3-0.8
			c0-0.3-0.1-0.5-0.2-0.7c-0.2-0.2-0.4-0.3-0.8-0.4C129.6,368.3,129.6,370.6,129.6,370.6z"/>
		<path class="st8" d="M133.1,369.6l1.6-0.2c0.1,0.4,0.2,0.7,0.4,0.9s0.5,0.3,0.8,0.3c0.3,0,0.6-0.1,0.9-0.4s0.4-0.7,0.4-1.3
			c0-0.5-0.1-0.9-0.4-1.2s-0.5-0.4-0.9-0.4c-0.5,0-0.9,0.2-1.3,0.6l-1.3-0.2l0.8-4.5h4.3v1.5h-3.1l-0.3,1.5c0.4-0.2,0.7-0.3,1.1-0.3
			c0.7,0,1.4,0.3,1.9,0.8c0.5,0.5,0.8,1.2,0.8,2.1c0,0.7-0.2,1.3-0.6,1.9c-0.6,0.8-1.3,1.1-2.3,1.1c-0.8,0-1.4-0.2-1.9-0.6
			S133.2,370.3,133.1,369.6z"/>
	</g>
	<g>
		<path class="st8" d="M104,299.7v-2.5c-0.8-0.2-1.3-0.5-1.7-1s-0.5-1-0.5-1.6c0-0.6,0.2-1.2,0.6-1.6c0.4-0.4,0.9-0.7,1.6-0.8v-0.6
			h0.8v0.6c0.6,0.1,1.1,0.3,1.5,0.6s0.6,0.8,0.7,1.4l-1.5,0.2c-0.1-0.5-0.3-0.8-0.7-0.9v2.3c0.9,0.3,1.6,0.6,1.9,1s0.5,0.9,0.5,1.6
			c0,0.7-0.2,1.3-0.6,1.8s-1,0.8-1.8,0.9v1.1H104v-1.1c-0.7-0.1-1.2-0.3-1.7-0.8s-0.7-1-0.8-1.8l1.5-0.2c0.1,0.3,0.2,0.6,0.3,0.8
			C103.6,299.5,103.8,299.6,104,299.7z M104,293.6c-0.2,0.1-0.4,0.2-0.5,0.4c-0.1,0.2-0.2,0.4-0.2,0.6c0,0.2,0.1,0.4,0.2,0.6
			c0.1,0.2,0.3,0.3,0.6,0.4V293.6z M104.9,299.8c0.3,0,0.5-0.2,0.7-0.4s0.3-0.5,0.3-0.8c0-0.3-0.1-0.5-0.2-0.7
			c-0.1-0.2-0.4-0.3-0.8-0.4V299.8z"/>
		<path class="st8" d="M112.5,301h-1.6v-6.2c-0.6,0.6-1.3,1-2.1,1.3v-1.5c0.4-0.1,0.9-0.4,1.4-0.8c0.5-0.4,0.8-0.9,1-1.4h1.3
			L112.5,301L112.5,301z"/>
		<path class="st8" d="M115.3,301v-8.6h2.6l1.6,5.9l1.5-5.9h2.6v8.6H122v-6.8l-1.7,6.8h-1.7l-1.7-6.8v6.8H115.3z"/>
	</g>
	<g>
		<path class="st8" d="M104,245.7v-2.5c-0.8-0.2-1.3-0.6-1.7-1s-0.5-1-0.5-1.6c0-0.6,0.2-1.2,0.6-1.6c0.4-0.4,0.9-0.7,1.6-0.8v-0.6
			h0.8v0.6c0.6,0.1,1.1,0.3,1.5,0.6s0.6,0.8,0.7,1.4l-1.5,0.2c-0.1-0.5-0.3-0.8-0.7-0.9v2.3c0.9,0.3,1.6,0.6,1.9,1s0.5,0.9,0.5,1.6
			c0,0.7-0.2,1.3-0.6,1.8s-1,0.8-1.8,0.9v1.1H104v-1.1c-0.7-0.1-1.2-0.3-1.7-0.8s-0.7-1-0.8-1.8l1.5-0.2c0.1,0.3,0.2,0.6,0.3,0.8
			S103.8,245.6,104,245.7z M104,239.6c-0.2,0.1-0.4,0.2-0.5,0.4s-0.2,0.4-0.2,0.6c0,0.2,0.1,0.4,0.2,0.6s0.3,0.3,0.6,0.4V239.6z
			 M104.9,245.8c0.3-0.1,0.5-0.2,0.7-0.4s0.3-0.5,0.3-0.8c0-0.3-0.1-0.5-0.2-0.7c-0.1-0.2-0.4-0.3-0.8-0.4V245.8z"/>
		<path class="st8" d="M113.9,245.5v1.5h-5.8c0.1-0.6,0.3-1.1,0.6-1.6c0.3-0.5,0.9-1.2,1.8-2.1c0.7-0.7,1.2-1.2,1.4-1.4
			c0.2-0.3,0.3-0.7,0.3-1c0-0.4-0.1-0.6-0.3-0.9c-0.2-0.2-0.5-0.3-0.8-0.3c-0.3,0-0.6,0.1-0.8,0.3c-0.2,0.2-0.3,0.6-0.3,1l-1.6-0.2
			c0.1-0.9,0.4-1.6,0.9-1.9s1.2-0.6,1.9-0.6c0.8,0,1.5,0.2,2,0.7c0.5,0.5,0.7,1,0.7,1.7c0,0.4-0.1,0.8-0.2,1.1s-0.4,0.7-0.7,1.1
			c-0.2,0.3-0.6,0.6-1.1,1.1c-0.5,0.5-0.8,0.8-1,0.9c-0.1,0.2-0.3,0.3-0.3,0.5L113.9,245.5L113.9,245.5z"/>
		<path class="st8" d="M115.3,247v-8.6h2.6l1.6,5.9l1.5-5.9h2.6v8.6H122v-6.8l-1.7,6.8h-1.7l-1.7-6.8v6.8H115.3z"/>
	</g>
	<g>
		<path class="st8" d="M103.9,190.3v-2.5c-0.8-0.2-1.3-0.6-1.7-1c-0.3-0.4-0.5-1-0.5-1.6c0-0.6,0.2-1.2,0.6-1.6
			c0.4-0.4,0.9-0.7,1.6-0.8v-0.6h0.8v0.6c0.6,0.1,1.1,0.3,1.5,0.6c0.4,0.4,0.6,0.8,0.7,1.4l-1.5,0.2c-0.1-0.5-0.3-0.8-0.7-0.9v2.3
			c0.9,0.3,1.6,0.6,1.9,1c0.3,0.4,0.5,0.9,0.5,1.6c0,0.7-0.2,1.3-0.6,1.8c-0.4,0.5-1,0.8-1.8,0.9v1.1h-0.9v-1.1
			c-0.7-0.1-1.2-0.3-1.7-0.8c-0.4-0.4-0.7-1-0.8-1.8l1.5-0.2c0.1,0.3,0.2,0.6,0.3,0.8S103.7,190.2,103.9,190.3z M103.9,184.2
			c-0.2,0.1-0.4,0.2-0.6,0.4s-0.2,0.4-0.2,0.6c0,0.2,0.1,0.4,0.2,0.6c0.1,0.2,0.3,0.3,0.6,0.4V184.2z M104.8,190.4
			c0.3-0.1,0.5-0.2,0.7-0.4s0.3-0.5,0.3-0.8c0-0.3-0.1-0.5-0.2-0.7c-0.1-0.2-0.4-0.3-0.8-0.4V190.4z"/>
		<path class="st8" d="M108.2,189.3l1.6-0.2c0,0.4,0.2,0.7,0.4,0.9c0.2,0.2,0.5,0.3,0.8,0.3c0.3,0,0.6-0.1,0.9-0.4
			c0.2-0.3,0.3-0.6,0.3-1c0-0.4-0.1-0.7-0.3-1s-0.5-0.4-0.8-0.4c-0.2,0-0.5,0-0.8,0.1l0.2-1.3c0.4,0,0.8-0.1,1-0.3
			c0.2-0.2,0.3-0.5,0.3-0.8c0-0.3-0.1-0.5-0.3-0.7c-0.2-0.2-0.4-0.3-0.7-0.3c-0.3,0-0.5,0.1-0.7,0.3c-0.2,0.2-0.3,0.5-0.4,0.9
			l-1.5-0.3c0.1-0.5,0.3-0.9,0.5-1.3c0.2-0.3,0.5-0.6,0.9-0.7c0.4-0.2,0.8-0.3,1.3-0.3c0.8,0,1.5,0.3,2,0.8c0.4,0.4,0.6,0.9,0.6,1.4
			c0,0.8-0.4,1.4-1.2,1.8c0.5,0.1,0.9,0.3,1.2,0.7c0.3,0.4,0.4,0.8,0.4,1.3c0,0.8-0.3,1.4-0.8,1.9s-1.2,0.8-2.1,0.8
			c-0.8,0-1.4-0.2-1.9-0.7S108.2,190,108.2,189.3z"/>
		<path class="st8" d="M115.2,191.6V183h2.6l1.6,5.9l1.5-5.9h2.6v8.6h-1.6v-6.8l-1.7,6.8h-1.7l-1.7-6.8v6.8
			C116.8,191.6,115.2,191.6,115.2,191.6z"/>
	</g>
	<g>
		<path class="st8" d="M232.5,370.5V368c-0.8-0.2-1.3-0.5-1.7-1s-0.5-1-0.5-1.6c0-0.6,0.2-1.2,0.6-1.6s0.9-0.7,1.6-0.8v-0.6h0.9v0.6
			c0.6,0.1,1.1,0.3,1.5,0.6s0.6,0.8,0.7,1.4l-1.5,0.2c-0.1-0.5-0.3-0.8-0.7-0.9v2.3c0.9,0.3,1.6,0.6,1.9,1s0.5,0.9,0.5,1.6
			c0,0.7-0.2,1.3-0.6,1.8s-1,0.8-1.8,0.9v1.1h-0.9v-1.1c-0.7-0.1-1.2-0.3-1.6-0.8s-0.7-1-0.8-1.8l1.5-0.2c0.1,0.3,0.2,0.6,0.4,0.8
			S232.3,370.4,232.5,370.5z M232.5,364.3c-0.2,0.1-0.4,0.2-0.6,0.4s-0.2,0.4-0.2,0.6c0,0.2,0.1,0.4,0.2,0.6s0.3,0.3,0.6,0.4V364.3z
			 M233.4,370.6c0.3,0,0.5-0.2,0.7-0.4s0.3-0.5,0.3-0.8c0-0.3-0.1-0.5-0.2-0.7s-0.4-0.3-0.8-0.4L233.4,370.6L233.4,370.6z"/>
		<path class="st8" d="M241.1,371.8h-1.6v-6.2c-0.6,0.6-1.3,1-2.1,1.3v-1.5c0.4-0.1,0.9-0.4,1.4-0.8s0.9-0.9,1-1.4h1.3L241.1,371.8
			L241.1,371.8z"/>
		<path class="st8" d="M246.3,363.1c0.8,0,1.5,0.3,1.9,0.9c0.6,0.7,0.8,1.9,0.8,3.5s-0.3,2.8-0.8,3.5c-0.5,0.6-1.1,0.9-1.9,0.9
			s-1.5-0.3-2-1s-0.8-1.8-0.8-3.4c0-1.6,0.3-2.8,0.8-3.5C244.8,363.4,245.5,363.1,246.3,363.1z M246.3,364.5c-0.2,0-0.4,0.1-0.5,0.2
			s-0.3,0.4-0.4,0.7c-0.1,0.4-0.2,1.1-0.2,2.1s0.1,1.7,0.1,2.1s0.2,0.6,0.4,0.8s0.3,0.2,0.5,0.2s0.4-0.1,0.5-0.2s0.3-0.4,0.4-0.7
			c0.1-0.4,0.2-1.1,0.2-2.1s-0.1-1.7-0.1-2.1s-0.2-0.6-0.4-0.8S246.5,364.5,246.3,364.5z"/>
	</g>
	<g>
		<path class="st8" d="M339.9,370.5V368c-0.8-0.2-1.3-0.5-1.7-1s-0.5-1-0.5-1.6c0-0.6,0.2-1.2,0.6-1.6s0.9-0.7,1.6-0.8v-0.6h0.9v0.6
			c0.6,0.1,1.1,0.3,1.5,0.6s0.6,0.8,0.7,1.4l-1.5,0.2c-0.1-0.5-0.3-0.8-0.7-0.9v2.3c0.9,0.3,1.6,0.6,1.9,1s0.5,0.9,0.5,1.6
			c0,0.7-0.2,1.3-0.6,1.8s-1,0.8-1.8,0.9v1.1h-0.9v-1.1c-0.7-0.1-1.2-0.3-1.6-0.8s-0.7-1-0.8-1.8l1.5-0.2c0.1,0.3,0.2,0.6,0.4,0.8
			S339.7,370.4,339.9,370.5z M339.9,364.3c-0.2,0.1-0.4,0.2-0.5,0.4s-0.2,0.4-0.2,0.6c0,0.2,0.1,0.4,0.2,0.6s0.3,0.3,0.6,0.4
			L339.9,364.3L339.9,364.3z M340.8,370.6c0.3,0,0.5-0.2,0.7-0.4s0.3-0.5,0.3-0.8c0-0.3-0.1-0.5-0.2-0.7s-0.4-0.3-0.8-0.4
			L340.8,370.6L340.8,370.6z"/>
		<path class="st8" d="M348.4,371.8h-1.6v-6.2c-0.6,0.6-1.3,1-2.1,1.3v-1.5c0.4-0.1,0.9-0.4,1.4-0.8s0.9-0.9,1-1.4h1.3V371.8z"/>
		<path class="st8" d="M350.9,369.6l1.6-0.2c0,0.4,0.2,0.7,0.4,0.9s0.5,0.3,0.8,0.3c0.3,0,0.6-0.1,0.9-0.4s0.4-0.7,0.4-1.3
			c0-0.5-0.1-0.9-0.4-1.2s-0.5-0.4-0.9-0.4c-0.5,0-0.9,0.2-1.3,0.6l-1.3-0.2l0.8-4.5h4.4v1.5h-3.1l-0.3,1.5c0.4-0.2,0.7-0.3,1.1-0.3
			c0.7,0,1.4,0.3,1.9,0.8s0.8,1.2,0.8,2.1c0,0.7-0.2,1.3-0.6,1.9c-0.6,0.8-1.3,1.1-2.3,1.1c-0.8,0-1.4-0.2-1.9-0.6
			S351,370.3,350.9,369.6z"/>
	</g>
	<g>
		<path class="st8" d="M447.7,370.5V368c-0.8-0.2-1.3-0.5-1.7-1s-0.5-1-0.5-1.6c0-0.6,0.2-1.2,0.6-1.6s0.9-0.7,1.6-0.8v-0.6h0.9v0.6
			c0.6,0.1,1.1,0.3,1.5,0.6s0.6,0.8,0.7,1.4l-1.5,0.2c-0.1-0.5-0.3-0.8-0.7-0.9v2.3c0.9,0.3,1.6,0.6,1.9,1s0.5,0.9,0.5,1.6
			c0,0.7-0.2,1.3-0.6,1.8s-1,0.8-1.8,0.9v1.1h-0.9v-1.1c-0.7-0.1-1.2-0.3-1.6-0.8s-0.7-1-0.8-1.8l1.5-0.2c0.1,0.3,0.2,0.6,0.4,0.8
			S447.5,370.4,447.7,370.5z M447.7,364.3c-0.2,0.1-0.4,0.2-0.5,0.4s-0.2,0.4-0.2,0.6c0,0.2,0.1,0.4,0.2,0.6s0.3,0.3,0.6,0.4
			L447.7,364.3L447.7,364.3z M448.5,370.6c0.3,0,0.5-0.2,0.7-0.4s0.3-0.5,0.3-0.8c0-0.3-0.1-0.5-0.2-0.7s-0.4-0.3-0.8-0.4
			L448.5,370.6L448.5,370.6z"/>
		<path class="st8" d="M457.6,370.2v1.5h-5.8c0.1-0.6,0.3-1.1,0.6-1.6s0.9-1.2,1.9-2.1c0.7-0.7,1.2-1.2,1.4-1.4
			c0.2-0.3,0.3-0.7,0.3-1c0-0.4-0.1-0.6-0.3-0.9s-0.5-0.3-0.8-0.3c-0.3,0-0.6,0.1-0.8,0.3s-0.3,0.5-0.4,1l-1.6-0.2
			c0.1-0.9,0.4-1.6,0.9-2s1.2-0.6,1.9-0.6c0.9,0,1.5,0.2,2,0.7s0.7,1,0.7,1.7c0,0.4-0.1,0.8-0.2,1.1s-0.4,0.7-0.7,1.1
			c-0.2,0.3-0.6,0.6-1.1,1.1s-0.9,0.8-1,1s-0.3,0.3-0.3,0.5L457.6,370.2L457.6,370.2z"/>
		<path class="st8" d="M461.5,363.1c0.8,0,1.5,0.3,2,0.9c0.6,0.7,0.8,1.9,0.8,3.5s-0.3,2.8-0.8,3.5c-0.5,0.6-1.1,0.9-2,0.9
			c-0.8,0-1.5-0.3-2-1s-0.8-1.8-0.8-3.4c0-1.6,0.3-2.8,0.8-3.5C460,363.4,460.6,363.1,461.5,363.1z M461.5,364.5
			c-0.2,0-0.4,0.1-0.5,0.2s-0.3,0.4-0.4,0.7c-0.1,0.4-0.2,1.1-0.2,2.1s0,1.7,0.1,2.1s0.2,0.6,0.4,0.8s0.3,0.2,0.5,0.2
			s0.4-0.1,0.5-0.2s0.3-0.4,0.4-0.7c0.1-0.4,0.2-1.1,0.2-2.1s0-1.7-0.1-2.1s-0.2-0.6-0.4-0.8S461.7,364.5,461.5,364.5z"/>
	</g>
	<g>
		<path class="st8" d="M556.1,370.5V368c-0.8-0.2-1.3-0.5-1.7-1c-0.4-0.4-0.5-1-0.5-1.6c0-0.6,0.2-1.2,0.6-1.6s0.9-0.7,1.6-0.8v-0.6
			h0.9v0.6c0.6,0.1,1.1,0.3,1.5,0.6c0.4,0.4,0.6,0.8,0.7,1.4l-1.5,0.2c-0.1-0.5-0.3-0.8-0.7-0.9v2.3c0.9,0.3,1.6,0.6,1.9,1
			s0.5,0.9,0.5,1.6c0,0.7-0.2,1.3-0.6,1.8c-0.4,0.5-1,0.8-1.8,0.9v1.1h-0.9v-1.1c-0.7-0.1-1.2-0.3-1.6-0.8s-0.7-1-0.8-1.8l1.5-0.2
			c0.1,0.3,0.2,0.6,0.4,0.8C555.7,370.2,555.9,370.4,556.1,370.5z M556.1,364.3c-0.2,0.1-0.4,0.2-0.5,0.4c-0.1,0.2-0.2,0.4-0.2,0.6
			c0,0.2,0.1,0.4,0.2,0.6s0.3,0.3,0.6,0.4V364.3L556.1,364.3z M556.9,370.6c0.3,0,0.5-0.2,0.7-0.4s0.3-0.5,0.3-0.8
			c0-0.3-0.1-0.5-0.2-0.7s-0.4-0.3-0.8-0.4V370.6L556.9,370.6z"/>
		<path class="st8" d="M566,370.2v1.5h-5.8c0.1-0.6,0.3-1.1,0.6-1.6s0.9-1.2,1.9-2.1c0.7-0.7,1.2-1.2,1.4-1.4c0.2-0.3,0.3-0.7,0.3-1
			c0-0.4-0.1-0.6-0.3-0.9c-0.2-0.2-0.5-0.3-0.8-0.3c-0.3,0-0.6,0.1-0.8,0.3s-0.3,0.5-0.3,1l-1.6-0.2c0.1-0.9,0.4-1.6,0.9-2
			s1.2-0.6,1.9-0.6c0.9,0,1.5,0.2,2,0.7s0.7,1,0.7,1.7c0,0.4-0.1,0.8-0.2,1.1c-0.1,0.4-0.4,0.7-0.7,1.1c-0.2,0.3-0.6,0.6-1.1,1.1
			c-0.5,0.5-0.8,0.8-1,1c-0.1,0.2-0.3,0.3-0.3,0.5L566,370.2L566,370.2z"/>
		<path class="st8" d="M567.1,369.6l1.6-0.2c0,0.4,0.2,0.7,0.4,0.9c0.2,0.2,0.5,0.3,0.8,0.3c0.3,0,0.6-0.1,0.9-0.4s0.4-0.7,0.4-1.3
			c0-0.5-0.1-0.9-0.3-1.2c-0.2-0.3-0.5-0.4-0.9-0.4c-0.5,0-0.9,0.2-1.3,0.6l-1.3-0.2l0.8-4.5h4.3v1.5h-3.1l-0.3,1.5
			c0.4-0.2,0.7-0.3,1.1-0.3c0.7,0,1.4,0.3,1.9,0.8c0.5,0.5,0.8,1.2,0.8,2.1c0,0.7-0.2,1.3-0.6,1.9c-0.6,0.8-1.3,1.1-2.3,1.1
			c-0.8,0-1.4-0.2-1.9-0.6S567.2,370.3,567.1,369.6z"/>
	</g>
</g>
<g>
	<path class="st10" d="M221.7,134.3c0,1.4-0.3,2.6-0.7,3.7c-0.5,1.1-1.2,1.9-2.1,2.4c-0.9,0.6-2,0.9-3.2,0.9c-1.2,0-2.2-0.3-3.1-0.8
		c-0.9-0.6-1.6-1.4-2.1-2.4s-0.8-2.3-0.8-3.6v-0.7c0-1.4,0.3-2.6,0.8-3.7c0.5-1.1,1.2-1.9,2.1-2.4c0.9-0.6,2-0.8,3.2-0.8
		s2.2,0.3,3.2,0.8c0.9,0.6,1.6,1.4,2.1,2.4s0.8,2.3,0.8,3.7L221.7,134.3L221.7,134.3z M218.7,133.7c0-1.5-0.3-2.6-0.8-3.4
		c-0.5-0.8-1.3-1.2-2.3-1.2c-1,0-1.7,0.4-2.3,1.1c-0.5,0.8-0.8,1.9-0.8,3.4v0.7c0,1.4,0.3,2.6,0.8,3.4s1.3,1.2,2.3,1.2
		c1,0,1.7-0.4,2.3-1.2s0.8-1.9,0.8-3.4L218.7,133.7L218.7,133.7z"/>
	<path class="st10" d="M233.1,135.9c0,1.6-0.4,2.9-1.1,3.9c-0.7,1-1.7,1.5-3,1.5c-1.1,0-1.9-0.4-2.6-1.1v5h-2.8v-14.6h2.6l0.1,1
		c0.7-0.8,1.6-1.2,2.7-1.2c1.3,0,2.3,0.5,3,1.5s1.1,2.3,1.1,4L233.1,135.9L233.1,135.9z M230.3,135.7c0-1-0.2-1.7-0.5-2.3
		c-0.4-0.5-0.9-0.8-1.5-0.8c-0.9,0-1.5,0.3-1.8,1v4.3c0.4,0.7,1,1,1.9,1C229.6,139,230.3,137.9,230.3,135.7z"/>
	<path class="st10" d="M238.3,127.9v2.6h1.8v2.1h-1.8v5.3c0,0.4,0.1,0.7,0.2,0.8s0.4,0.3,0.9,0.3c0.3,0,0.6,0,0.8-0.1v2.1
		c-0.6,0.2-1.1,0.3-1.7,0.3c-2,0-3-1-3-3v-5.7h-1.5v-2.1h1.5v-2.6L238.3,127.9L238.3,127.9z"/>
	<path class="st10" d="M241.6,127.8c0-0.4,0.1-0.8,0.4-1c0.3-0.3,0.7-0.4,1.2-0.4c0.5,0,0.9,0.1,1.1,0.4c0.3,0.3,0.4,0.6,0.4,1
		c0,0.4-0.1,0.8-0.4,1.1c-0.3,0.3-0.7,0.4-1.1,0.4s-0.9-0.1-1.1-0.4C241.8,128.6,241.6,128.2,241.6,127.8z M244.6,141.1h-2.8v-10.6
		h2.8V141.1z"/>
	<path class="st10" d="M246.5,135.7c0-1.1,0.2-2,0.6-2.8c0.4-0.8,1-1.5,1.7-1.9s1.6-0.7,2.6-0.7c1.4,0,2.6,0.4,3.5,1.3
		c0.9,0.9,1.4,2.1,1.5,3.6l0,0.7c0,1.6-0.4,2.9-1.4,3.9c-0.9,1-2.1,1.5-3.6,1.5s-2.7-0.5-3.6-1.5s-1.4-2.3-1.4-4L246.5,135.7
		L246.5,135.7z M249.3,135.9c0,1,0.2,1.8,0.6,2.3s0.9,0.8,1.6,0.8c0.7,0,1.2-0.3,1.6-0.8s0.6-1.4,0.6-2.5c0-1-0.2-1.8-0.6-2.3
		c-0.4-0.5-0.9-0.8-1.6-0.8c-0.7,0-1.2,0.3-1.6,0.8C249.5,134,249.3,134.8,249.3,135.9z"/>
	<path class="st10" d="M260.8,130.5l0.1,1.2c0.8-0.9,1.8-1.4,3-1.4c1.1,0,1.9,0.3,2.5,1c0.5,0.7,0.8,1.6,0.8,2.9v6.8h-2.8v-6.8
		c0-0.6-0.1-1-0.4-1.3c-0.3-0.3-0.7-0.4-1.3-0.4c-0.8,0-1.4,0.3-1.8,1v7.4h-2.8v-10.6H260.8z"/>
	<path class="st10" d="M272.2,131.7c0.8-0.9,1.7-1.3,2.8-1.3c2.3,0,3.4,1.3,3.5,4v6.8h-2.8v-6.7c0-0.6-0.1-1.1-0.4-1.3
		c-0.3-0.3-0.7-0.4-1.3-0.4c-0.8,0-1.4,0.3-1.8,1v7.5h-2.8v-15h2.8V131.7z"/>
	<path class="st10" d="M280.2,135.7c0-1.1,0.2-2,0.6-2.8c0.4-0.8,1-1.5,1.7-1.9s1.6-0.7,2.6-0.7c1.4,0,2.6,0.4,3.5,1.3
		c0.9,0.9,1.4,2.1,1.5,3.6l0,0.7c0,1.6-0.5,2.9-1.4,3.9c-0.9,1-2.1,1.5-3.6,1.5c-1.5,0-2.7-0.5-3.6-1.5c-0.9-1-1.4-2.3-1.4-4V135.7
		L280.2,135.7z M283,135.9c0,1,0.2,1.8,0.6,2.3s0.9,0.8,1.6,0.8c0.7,0,1.2-0.3,1.6-0.8s0.6-1.4,0.6-2.5c0-1-0.2-1.8-0.6-2.3
		c-0.4-0.5-0.9-0.8-1.6-0.8c-0.7,0-1.2,0.3-1.6,0.8C283.2,134,283,134.8,283,135.9z"/>
	<path class="st10" d="M294.9,141.1h-2.8v-15h2.8V141.1z"/>
	<path class="st10" d="M296.8,135.7c0-1.7,0.4-3,1.1-3.9c0.7-1,1.8-1.5,3-1.5c1,0,1.9,0.4,2.5,1.1v-5.4h2.8v15h-2.6l-0.1-1.1
		c-0.7,0.9-1.6,1.3-2.7,1.3c-1.2,0-2.2-0.5-3-1.5C297.2,138.8,296.8,137.5,296.8,135.7z M299.6,135.9c0,1,0.2,1.8,0.5,2.3
		s0.9,0.8,1.5,0.8c0.9,0,1.5-0.4,1.9-1.1v-4.2c-0.4-0.7-1-1.1-1.8-1.1C300.3,132.6,299.6,133.7,299.6,135.9z"/>
	<path class="st10" d="M313.4,141.3c-1.5,0-2.8-0.5-3.8-1.4s-1.5-2.2-1.5-3.8v-0.3c0-1.1,0.2-2,0.6-2.8c0.4-0.8,1-1.5,1.7-1.9
		c0.8-0.4,1.6-0.7,2.6-0.7c1.5,0,2.6,0.5,3.4,1.4c0.8,0.9,1.3,2.2,1.3,3.9v1.1H311c0.1,0.7,0.4,1.2,0.8,1.7c0.5,0.4,1,0.6,1.7,0.6
		c1.1,0,1.9-0.4,2.6-1.2l1.4,1.6c-0.4,0.6-1,1.1-1.7,1.4S314.3,141.3,313.4,141.3z M313.1,132.6c-0.6,0-1,0.2-1.4,0.6
		c-0.4,0.4-0.6,0.9-0.7,1.6h3.9v-0.2c0-0.6-0.2-1.1-0.5-1.5C314.1,132.8,313.7,132.6,313.1,132.6z"/>
	<path class="st10" d="M325.3,133.2c-0.4,0-0.7-0.1-1-0.1c-1.1,0-1.8,0.4-2.1,1.1v6.9h-2.8v-10.6h2.7l0.1,1.3c0.6-1,1.4-1.5,2.4-1.5
		c0.3,0,0.6,0,0.9,0.1L325.3,133.2z"/>
	<path class="st10" d="M336.5,141.3c-1.5,0-2.8-0.5-3.8-1.4s-1.5-2.2-1.5-3.8v-0.3c0-1.1,0.2-2,0.6-2.8s1-1.5,1.7-1.9
		c0.8-0.4,1.6-0.7,2.6-0.7c1.5,0,2.6,0.5,3.4,1.4s1.3,2.2,1.3,3.9v1.1h-6.7c0.1,0.7,0.4,1.2,0.8,1.7c0.5,0.4,1,0.6,1.7,0.6
		c1.1,0,1.9-0.4,2.5-1.2l1.4,1.6c-0.4,0.6-1,1.1-1.7,1.4S337.4,141.3,336.5,141.3z M336.1,132.6c-0.6,0-1,0.2-1.4,0.6
		c-0.3,0.4-0.6,0.9-0.7,1.6h3.9v-0.2c0-0.6-0.2-1.1-0.5-1.5C337.2,132.8,336.7,132.6,336.1,132.6z"/>
	<path class="st10" d="M346.4,133.7l1.8-3.2h3l-3,5.2l3.1,5.4h-3l-1.9-3.3l-1.9,3.3h-3l3.1-5.4l-3-5.2h3L346.4,133.7z"/>
	<path class="st10" d="M357.5,141.3c-1.5,0-2.8-0.5-3.8-1.4s-1.5-2.2-1.5-3.8v-0.3c0-1.1,0.2-2,0.6-2.8s1-1.5,1.7-1.9
		c0.8-0.4,1.6-0.7,2.6-0.7c1.5,0,2.6,0.5,3.4,1.4s1.3,2.2,1.3,3.9v1.1h-6.7c0.1,0.7,0.4,1.2,0.8,1.7c0.5,0.4,1,0.6,1.7,0.6
		c1.1,0,1.9-0.4,2.5-1.2l1.4,1.6c-0.4,0.6-1,1.1-1.7,1.4S358.3,141.3,357.5,141.3z M357.1,132.6c-0.6,0-1,0.2-1.4,0.6
		c-0.3,0.4-0.6,0.9-0.7,1.6h3.9v-0.2c0-0.6-0.2-1.1-0.5-1.5C358.2,132.8,357.7,132.6,357.1,132.6z"/>
	<path class="st10" d="M369.3,133.2c-0.4,0-0.7-0.1-1-0.1c-1.1,0-1.8,0.4-2.1,1.1v6.9h-2.8v-10.6h2.7l0.1,1.3c0.6-1,1.4-1.5,2.4-1.5
		c0.3,0,0.6,0,0.9,0.1L369.3,133.2z"/>
	<path class="st10" d="M374.9,139c0.5,0,0.9-0.1,1.3-0.4c0.3-0.3,0.5-0.7,0.5-1.1h2.6c0,0.7-0.2,1.4-0.6,2c-0.4,0.6-0.9,1.1-1.6,1.4
		s-1.4,0.5-2.2,0.5c-1.5,0-2.7-0.5-3.6-1.4c-0.9-1-1.3-2.3-1.3-4v-0.2c0-1.6,0.4-2.9,1.3-3.9s2-1.5,3.6-1.5c1.3,0,2.4,0.4,3.2,1.1
		s1.2,1.8,1.2,3h-2.6c0-0.6-0.2-1-0.5-1.3c-0.3-0.3-0.8-0.5-1.3-0.5c-0.7,0-1.1,0.2-1.5,0.7c-0.3,0.5-0.5,1.3-0.5,2.3v0.3
		c0,1.1,0.2,1.9,0.5,2.4S374.2,139,374.9,139z"/>
	<path class="st10" d="M380.9,127.8c0-0.4,0.1-0.8,0.4-1c0.3-0.3,0.7-0.4,1.2-0.4c0.5,0,0.9,0.1,1.1,0.4c0.3,0.3,0.4,0.6,0.4,1
		c0,0.4-0.1,0.8-0.4,1.1c-0.3,0.3-0.7,0.4-1.1,0.4s-0.9-0.1-1.1-0.4C381.1,128.6,380.9,128.2,380.9,127.8z M383.9,141.1h-2.8v-10.6
		h2.8V141.1z"/>
	<path class="st10" d="M392,138.2c0-0.3-0.2-0.6-0.5-0.8s-0.9-0.4-1.6-0.5c-2.5-0.5-3.8-1.6-3.8-3.2c0-0.9,0.4-1.7,1.2-2.4
		c0.8-0.6,1.8-0.9,3-0.9c1.3,0,2.4,0.3,3.2,1c0.8,0.6,1.2,1.4,1.2,2.5h-2.8c0-0.4-0.1-0.7-0.4-1s-0.7-0.4-1.2-0.4
		c-0.5,0-0.8,0.1-1.1,0.3c-0.3,0.2-0.4,0.5-0.4,0.8c0,0.3,0.1,0.6,0.4,0.8s0.8,0.4,1.5,0.5s1.3,0.3,1.8,0.5c1.5,0.6,2.2,1.5,2.2,2.8
		c0,1-0.4,1.7-1.2,2.3c-0.8,0.6-1.9,0.9-3.2,0.9c-0.9,0-1.7-0.2-2.4-0.5s-1.2-0.8-1.6-1.3s-0.6-1.1-0.6-1.8h2.7
		c0,0.5,0.2,0.9,0.6,1.1c0.4,0.3,0.8,0.4,1.4,0.4c0.5,0,1-0.1,1.2-0.3C391.9,138.8,392,138.5,392,138.2z"/>
	<path class="st10" d="M401.4,141.3c-1.5,0-2.8-0.5-3.8-1.4s-1.5-2.2-1.5-3.8v-0.3c0-1.1,0.2-2,0.6-2.8s1-1.5,1.7-1.9
		c0.8-0.4,1.6-0.7,2.6-0.7c1.5,0,2.6,0.5,3.4,1.4s1.3,2.2,1.3,3.9v1.1H399c0.1,0.7,0.4,1.2,0.8,1.7c0.5,0.4,1,0.6,1.7,0.6
		c1.1,0,1.9-0.4,2.5-1.2l1.4,1.6c-0.4,0.6-1,1.1-1.7,1.4S402.3,141.3,401.4,141.3z M401.1,132.6c-0.6,0-1,0.2-1.4,0.6
		c-0.3,0.4-0.6,0.9-0.7,1.6h3.9v-0.2c0-0.6-0.2-1.1-0.5-1.5C402.1,132.8,401.7,132.6,401.1,132.6z"/>
	<path class="st10" d="M417.2,141.3c-1.5,0-2.8-0.5-3.8-1.4s-1.5-2.2-1.5-3.8v-0.3c0-1.1,0.2-2,0.6-2.8s1-1.5,1.7-1.9
		c0.8-0.4,1.6-0.7,2.6-0.7c1.5,0,2.6,0.5,3.4,1.4s1.3,2.2,1.3,3.9v1.1h-6.7c0.1,0.7,0.4,1.2,0.8,1.7c0.5,0.4,1,0.6,1.7,0.6
		c1.1,0,1.9-0.4,2.5-1.2l1.4,1.6c-0.4,0.6-1,1.1-1.7,1.4S418.1,141.3,417.2,141.3z M416.9,132.6c-0.6,0-1,0.2-1.4,0.6
		c-0.3,0.4-0.6,0.9-0.7,1.6h3.9v-0.2c0-0.6-0.2-1.1-0.5-1.5C417.9,132.8,417.5,132.6,416.9,132.6z"/>
	<path class="st10" d="M427.1,133.7l1.8-3.2h3l-3,5.2l3.1,5.4h-3l-1.9-3.3l-1.9,3.3h-3l3.1-5.4l-3-5.2h3L427.1,133.7z"/>
	<path class="st10" d="M439.4,141.1c-0.1-0.3-0.2-0.6-0.3-0.9c-0.7,0.8-1.6,1.1-2.7,1.1c-1,0-1.9-0.3-2.6-0.9c-0.7-0.6-1-1.4-1-2.3
		c0-1.1,0.4-2,1.3-2.6c0.8-0.6,2-0.9,3.6-0.9h1.3V134c0-0.5-0.1-0.9-0.4-1.2c-0.3-0.3-0.6-0.4-1.2-0.4c-0.5,0-0.9,0.1-1.1,0.3
		s-0.4,0.5-0.4,0.9h-2.8c0-0.6,0.2-1.2,0.6-1.7c0.4-0.5,0.9-0.9,1.6-1.2s1.5-0.4,2.3-0.4c1.3,0,2.3,0.3,3.1,1
		c0.8,0.6,1.1,1.6,1.1,2.8v4.6c0,1,0.1,1.8,0.4,2.3v0.2L439.4,141.1L439.4,141.1z M437.1,139.1c0.4,0,0.8-0.1,1.1-0.3
		s0.6-0.4,0.8-0.8v-1.8h-1c-1.4,0-2.2,0.5-2.3,1.5l0,0.2c0,0.3,0.1,0.6,0.4,0.9C436.3,139,436.7,139.1,437.1,139.1z"/>
	<path class="st10" d="M446.7,130.5l0.1,1.2c0.8-0.9,1.8-1.4,3-1.4c1.4,0,2.3,0.5,2.8,1.6c0.7-1.1,1.8-1.6,3.2-1.6
		c1.1,0,2,0.3,2.6,1s0.8,1.7,0.8,3v6.8h-2.8v-6.7c0-0.6-0.1-1-0.4-1.3c-0.2-0.3-0.6-0.4-1.2-0.4c-0.9,0-1.4,0.4-1.8,1.2l0,7.3h-2.8
		v-6.7c0-0.6-0.1-1.1-0.4-1.3s-0.6-0.4-1.2-0.4c-0.8,0-1.4,0.3-1.7,1v7.5H444v-10.6H446.7z"/>
	<path class="st10" d="M470.9,135.9c0,1.6-0.4,2.9-1.1,3.9c-0.7,1-1.7,1.5-3,1.5c-1.1,0-1.9-0.4-2.6-1.1v5h-2.8v-14.6h2.6l0.1,1
		c0.7-0.8,1.6-1.2,2.7-1.2c1.3,0,2.3,0.5,3,1.5s1.1,2.3,1.1,4L470.9,135.9L470.9,135.9z M468,135.7c0-1-0.2-1.7-0.5-2.3
		c-0.3-0.5-0.9-0.8-1.5-0.8c-0.9,0-1.5,0.3-1.8,1v4.3c0.3,0.7,1,1,1.9,1C467.4,139,468,137.9,468,135.7z"/>
	<path class="st10" d="M475.6,141.1h-2.8v-15h2.8V141.1z"/>
	<path class="st10" d="M482.8,141.3c-1.5,0-2.8-0.5-3.8-1.4s-1.5-2.2-1.5-3.8v-0.3c0-1.1,0.2-2,0.6-2.8s1-1.5,1.7-1.9
		c0.8-0.4,1.6-0.7,2.6-0.7c1.5,0,2.6,0.5,3.4,1.4s1.3,2.2,1.3,3.9v1.1h-6.7c0.1,0.7,0.4,1.2,0.8,1.7c0.5,0.4,1,0.6,1.7,0.6
		c1.1,0,1.9-0.4,2.5-1.2l1.4,1.6c-0.4,0.6-1,1.1-1.7,1.4S483.6,141.3,482.8,141.3z M482.4,132.6c-0.6,0-1,0.2-1.4,0.6
		c-0.3,0.4-0.6,0.9-0.7,1.6h3.9v-0.2c0-0.6-0.2-1.1-0.5-1.5C483.5,132.8,483,132.6,482.4,132.6z"/>
</g>
<g class="st9">
	<path class="st10" d="M232.8,159.6h-4.9v4h5.7v1.2h-7.2v-11.4h7.1v1.2h-5.6v3.7h4.9V159.6z"/>
	<path class="st10" d="M238,159.5l1.9-3.1h1.7l-2.8,4.2l2.9,4.3H240l-1.9-3.2l-1.9,3.2h-1.7l2.9-4.3l-2.8-4.2h1.7L238,159.5z"/>
	<path class="st10" d="M246.6,165c-1.1,0-2.1-0.4-2.8-1.1s-1.1-1.8-1.1-3v-0.3c0-0.8,0.2-1.6,0.5-2.3c0.3-0.7,0.8-1.2,1.3-1.6
		c0.6-0.4,1.2-0.6,1.9-0.6c1.1,0,1.9,0.4,2.6,1.1c0.6,0.7,0.9,1.8,0.9,3.1v0.6h-5.7c0,0.8,0.3,1.5,0.7,2s1.1,0.8,1.8,0.8
		c0.5,0,0.9-0.1,1.3-0.3c0.4-0.2,0.7-0.5,0.9-0.8l0.9,0.7C249.1,164.5,248.1,165,246.6,165z M246.5,157.4c-0.6,0-1.1,0.2-1.5,0.6
		c-0.4,0.4-0.6,1-0.7,1.8h4.2v-0.1c0-0.7-0.2-1.3-0.6-1.7C247.5,157.6,247.1,157.4,246.5,157.4z"/>
	<path class="st10" d="M255.7,157.7c-0.2,0-0.5-0.1-0.7-0.1c-0.9,0-1.6,0.4-1.9,1.2v6h-1.4v-8.5h1.4l0,1c0.5-0.8,1.1-1.1,2-1.1
		c0.3,0,0.5,0,0.6,0.1L255.7,157.7L255.7,157.7z"/>
	<path class="st10" d="M260.3,163.8c0.5,0,1-0.2,1.4-0.5c0.4-0.3,0.6-0.7,0.6-1.2h1.4c0,0.5-0.2,0.9-0.5,1.4
		c-0.3,0.4-0.7,0.8-1.2,1.1c-0.5,0.3-1.1,0.4-1.6,0.4c-1.1,0-2.1-0.4-2.8-1.2c-0.7-0.8-1-1.8-1-3.1v-0.2c0-0.8,0.1-1.6,0.5-2.2
		c0.3-0.6,0.7-1.1,1.3-1.5c0.6-0.4,1.2-0.5,2-0.5c1,0,1.7,0.3,2.4,0.8c0.6,0.6,1,1.3,1,2.2h-1.4c0-0.6-0.3-1-0.6-1.4
		c-0.4-0.3-0.8-0.5-1.4-0.5c-0.7,0-1.3,0.3-1.7,0.8c-0.4,0.5-0.6,1.3-0.6,2.3v0.3c0,1,0.2,1.7,0.6,2.3
		C259,163.6,259.5,163.8,260.3,163.8z"/>
	<path class="st10" d="M265.3,154.2c0-0.2,0.1-0.4,0.2-0.6c0.1-0.2,0.4-0.2,0.6-0.2s0.5,0.1,0.6,0.2c0.1,0.2,0.2,0.4,0.2,0.6
		s-0.1,0.4-0.2,0.6c-0.1,0.2-0.4,0.2-0.6,0.2s-0.5-0.1-0.6-0.2C265.3,154.6,265.3,154.4,265.3,154.2z M266.8,164.9h-1.4v-8.4h1.4
		V164.9z"/>
	<path class="st10" d="M274.1,162.6c0-0.4-0.1-0.7-0.4-0.9c-0.3-0.2-0.8-0.4-1.5-0.6c-0.7-0.2-1.3-0.3-1.7-0.6
		c-0.4-0.2-0.8-0.5-0.9-0.8c-0.2-0.3-0.3-0.7-0.3-1.1c0-0.7,0.3-1.3,0.9-1.8c0.6-0.5,1.3-0.7,2.3-0.7c1,0,1.7,0.3,2.3,0.7
		c0.6,0.5,0.9,1.1,0.9,1.9H274c0-0.4-0.2-0.7-0.5-1c-0.3-0.3-0.8-0.4-1.3-0.4c-0.5,0-0.9,0.1-1.2,0.3c-0.3,0.2-0.4,0.5-0.4,0.9
		c0,0.4,0.1,0.6,0.4,0.8c0.3,0.2,0.8,0.3,1.5,0.5c0.7,0.2,1.3,0.4,1.8,0.6c0.4,0.2,0.8,0.5,1,0.8c0.2,0.3,0.3,0.7,0.3,1.2
		c0,0.8-0.3,1.4-0.9,1.8c-0.6,0.5-1.4,0.7-2.4,0.7c-0.7,0-1.3-0.1-1.8-0.4c-0.5-0.2-0.9-0.6-1.2-1c-0.3-0.4-0.4-0.9-0.4-1.4h1.5
		c0,0.5,0.2,0.9,0.6,1.1c0.4,0.3,0.8,0.4,1.4,0.4c0.6,0,1-0.1,1.3-0.3C273.9,163.3,274.1,163,274.1,162.6z"/>
	<path class="st10" d="M280.9,165c-1.1,0-2.1-0.4-2.8-1.1s-1.1-1.8-1.1-3v-0.3c0-0.8,0.2-1.6,0.5-2.3c0.3-0.7,0.8-1.2,1.3-1.6
		c0.6-0.4,1.2-0.6,1.9-0.6c1.1,0,2,0.4,2.6,1.1c0.6,0.7,0.9,1.8,0.9,3.1v0.6h-5.7c0,0.8,0.3,1.5,0.7,2s1.1,0.8,1.8,0.8
		c0.5,0,0.9-0.1,1.3-0.3c0.4-0.2,0.7-0.5,0.9-0.8l0.9,0.7C283.4,164.5,282.3,165,280.9,165z M280.7,157.4c-0.6,0-1.1,0.2-1.5,0.6
		c-0.4,0.4-0.6,1-0.7,1.8h4.2v-0.1c0-0.7-0.2-1.3-0.6-1.7C281.8,157.6,281.3,157.4,280.7,157.4z"/>
	<path class="st10" d="M297.6,154.7h-3.7v10.1h-1.5v-10.1h-3.6v-1.2h8.8V154.7z"/>
	<path class="st10" d="M297.9,160.6c0-0.8,0.2-1.6,0.5-2.2c0.3-0.7,0.8-1.2,1.4-1.5c0.6-0.4,1.2-0.5,2-0.5c1.1,0,2.1,0.4,2.8,1.2
		c0.7,0.8,1.1,1.9,1.1,3.2v0.1c0,0.8-0.2,1.6-0.5,2.2c-0.3,0.6-0.8,1.2-1.4,1.5c-0.6,0.4-1.3,0.6-2,0.6c-1.1,0-2.1-0.4-2.8-1.2
		c-0.7-0.8-1.1-1.9-1.1-3.2V160.6z M299.4,160.7c0,0.9,0.2,1.7,0.6,2.3c0.4,0.6,1,0.8,1.8,0.8c0.7,0,1.3-0.3,1.8-0.9
		c0.4-0.6,0.6-1.4,0.6-2.4c0-0.9-0.2-1.7-0.7-2.3c-0.4-0.6-1-0.9-1.8-0.9c-0.7,0-1.3,0.3-1.7,0.9
		C299.6,158.9,299.4,159.7,299.4,160.7z"/>
	<path class="st10" d="M307.1,160.6c0-1.3,0.3-2.3,0.9-3.1c0.6-0.8,1.4-1.2,2.4-1.2c1,0,1.8,0.3,2.4,1v-4.4h1.4v12h-1.3l-0.1-0.9
		c-0.6,0.7-1.4,1.1-2.4,1.1c-1,0-1.8-0.4-2.4-1.2c-0.6-0.8-0.9-1.8-0.9-3.1V160.6z M308.5,160.7c0,1,0.2,1.7,0.6,2.3
		c0.4,0.5,0.9,0.8,1.6,0.8c0.9,0,1.6-0.4,2-1.2v-3.9c-0.4-0.8-1.1-1.2-2-1.2c-0.7,0-1.3,0.3-1.7,0.8
		C308.7,158.8,308.5,159.7,308.5,160.7z"/>
	<path class="st10" d="M321.6,164.9c-0.1-0.2-0.1-0.5-0.2-0.9c-0.7,0.7-1.5,1.1-2.4,1.1c-0.8,0-1.5-0.2-2.1-0.7s-0.8-1.1-0.8-1.8
		c0-0.9,0.3-1.6,1-2.1c0.7-0.5,1.6-0.7,2.8-0.7h1.4v-0.7c0-0.5-0.1-0.9-0.5-1.2c-0.3-0.3-0.8-0.4-1.3-0.4c-0.5,0-0.9,0.1-1.3,0.4
		c-0.4,0.3-0.5,0.6-0.5,0.9h-1.4c0-0.4,0.1-0.8,0.4-1.2c0.3-0.4,0.7-0.7,1.2-0.9c0.5-0.2,1.1-0.3,1.7-0.3c1,0,1.7,0.2,2.3,0.7
		c0.5,0.5,0.8,1.2,0.9,2v3.9c0,0.8,0.1,1.4,0.3,1.9v0.1L321.6,164.9L321.6,164.9z M319.3,163.8c0.5,0,0.9-0.1,1.3-0.3
		c0.4-0.2,0.7-0.5,0.9-0.9v-1.7h-1.1c-1.8,0-2.7,0.5-2.7,1.6c0,0.4,0.1,0.8,0.4,1.1C318.4,163.6,318.8,163.8,319.3,163.8z"/>
	<path class="st10" d="M327.9,162.7l2-6.3h1.5l-3.4,9.8c-0.5,1.4-1.4,2.1-2.5,2.1l-0.3,0l-0.5-0.1V167l0.4,0c0.5,0,0.9-0.1,1.1-0.3
		c0.3-0.2,0.5-0.6,0.7-1.1l0.3-0.9l-3-8.4h1.6L327.9,162.7z"/>
	<path class="st10" d="M339.5,162.9l2.1-6.5h1.5l-3,8.4h-1.1l-3.1-8.4h1.5L339.5,162.9z"/>
	<path class="st10" d="M349.3,162.6c0-0.4-0.1-0.7-0.4-0.9s-0.8-0.4-1.5-0.6s-1.3-0.3-1.7-0.6s-0.8-0.5-1-0.8
		c-0.2-0.3-0.3-0.7-0.3-1.1c0-0.7,0.3-1.3,0.9-1.8c0.6-0.5,1.3-0.7,2.3-0.7c1,0,1.7,0.3,2.3,0.7c0.6,0.5,0.9,1.1,0.9,1.9h-1.5
		c0-0.4-0.2-0.7-0.5-1c-0.3-0.3-0.8-0.4-1.3-0.4c-0.5,0-0.9,0.1-1.2,0.3c-0.3,0.2-0.5,0.5-0.5,0.9c0,0.4,0.1,0.6,0.4,0.8
		c0.3,0.2,0.8,0.3,1.5,0.5c0.7,0.2,1.3,0.4,1.8,0.6c0.5,0.2,0.8,0.5,1,0.8c0.2,0.3,0.3,0.7,0.3,1.2c0,0.8-0.3,1.4-0.9,1.8
		c-0.6,0.5-1.4,0.7-2.4,0.7c-0.7,0-1.3-0.1-1.8-0.4c-0.5-0.2-0.9-0.6-1.2-1c-0.3-0.4-0.4-0.9-0.4-1.4h1.5c0,0.5,0.2,0.9,0.6,1.1
		s0.8,0.4,1.4,0.4c0.5,0,1-0.1,1.3-0.3C349.2,163.3,349.3,163,349.3,162.6z"/>
	<path class="st10" d="M359.3,161.3l0.2,1.5l0.3-1.4l2.3-7.9h1.3l2.2,7.9l0.3,1.4l0.2-1.5l1.8-7.8h1.5l-2.8,11.4h-1.4l-2.3-8.3
		l-0.2-0.9l-0.2,0.9l-2.4,8.3h-1.4l-2.8-11.4h1.5L359.3,161.3z"/>
	<path class="st10" d="M375.8,164.9c-0.1-0.2-0.1-0.5-0.2-0.9c-0.7,0.7-1.5,1.1-2.4,1.1c-0.8,0-1.5-0.2-2-0.7s-0.8-1.1-0.8-1.8
		c0-0.9,0.3-1.6,1-2.1s1.6-0.7,2.8-0.7h1.4v-0.7c0-0.5-0.1-0.9-0.5-1.2c-0.3-0.3-0.8-0.4-1.3-0.4c-0.5,0-1,0.1-1.3,0.4
		c-0.4,0.3-0.5,0.6-0.5,0.9h-1.5c0-0.4,0.1-0.8,0.5-1.2c0.3-0.4,0.7-0.7,1.2-0.9c0.5-0.2,1.1-0.3,1.7-0.3c1,0,1.7,0.2,2.3,0.7
		c0.5,0.5,0.8,1.2,0.9,2v3.9c0,0.8,0.1,1.4,0.3,1.9v0.1L375.8,164.9L375.8,164.9z M373.4,163.8c0.5,0,0.9-0.1,1.3-0.3
		s0.7-0.5,0.9-0.9v-1.7h-1.1c-1.8,0-2.7,0.5-2.7,1.6c0,0.4,0.1,0.8,0.5,1.1C372.5,163.6,372.9,163.8,373.4,163.8z"/>
	<path class="st10" d="M379.3,154.2c0-0.2,0.1-0.4,0.2-0.6c0.1-0.2,0.4-0.2,0.6-0.2s0.5,0.1,0.6,0.2c0.1,0.2,0.2,0.4,0.2,0.6
		s-0.1,0.4-0.2,0.6c-0.1,0.2-0.4,0.2-0.6,0.2s-0.5-0.1-0.6-0.2C379.4,154.6,379.3,154.4,379.3,154.2z M380.8,164.9h-1.5v-8.4h1.5
		V164.9z"/>
	<path class="st10" d="M385.1,154.4v2.1h1.6v1.1h-1.6v5.3c0,0.3,0.1,0.6,0.2,0.8c0.1,0.2,0.4,0.3,0.7,0.3c0.2,0,0.4,0,0.7-0.1v1.2
		c-0.4,0.1-0.8,0.2-1.1,0.2c-0.6,0-1.1-0.2-1.5-0.6s-0.5-0.9-0.5-1.7v-5.2h-1.5v-1.1h1.5v-2.1H385.1z"/>
	<path class="st10" d="M388.4,154.2c0-0.2,0.1-0.4,0.2-0.6c0.1-0.2,0.4-0.2,0.6-0.2s0.5,0.1,0.6,0.2c0.1,0.2,0.2,0.4,0.2,0.6
		s-0.1,0.4-0.2,0.6c-0.1,0.2-0.4,0.2-0.6,0.2s-0.5-0.1-0.6-0.2C388.4,154.6,388.4,154.4,388.4,154.2z M390,164.9h-1.5v-8.4h1.5
		V164.9z"/>
	<path class="st10" d="M393.6,156.4l0,1.1c0.6-0.8,1.5-1.2,2.5-1.2c1.8,0,2.7,1,2.7,3v5.6h-1.5v-5.6c0-0.6-0.1-1.1-0.4-1.3
		c-0.3-0.3-0.7-0.4-1.3-0.4c-0.5,0-0.9,0.1-1.2,0.4s-0.6,0.6-0.8,1v6h-1.5v-8.4H393.6z"/>
	<path class="st10" d="M400.7,160.6c0-1.3,0.3-2.4,0.9-3.1c0.6-0.8,1.4-1.2,2.4-1.2c1,0,1.8,0.4,2.4,1.1l0.1-0.9h1.3v8.3
		c0,1.1-0.3,2-1,2.6c-0.6,0.6-1.5,0.9-2.6,0.9c-0.6,0-1.2-0.1-1.8-0.4c-0.6-0.3-1-0.6-1.3-1.1l0.8-0.9c0.6,0.8,1.4,1.2,2.3,1.2
		c0.7,0,1.3-0.2,1.6-0.6c0.4-0.4,0.6-0.9,0.6-1.7V164c-0.6,0.7-1.4,1-2.4,1c-1,0-1.8-0.4-2.4-1.2C401,163,400.7,161.9,400.7,160.6z
		 M402.2,160.7c0,0.9,0.2,1.7,0.6,2.3c0.4,0.5,0.9,0.8,1.6,0.8c0.9,0,1.6-0.4,2-1.2v-3.9c-0.4-0.8-1.1-1.2-2-1.2
		c-0.7,0-1.3,0.3-1.6,0.8S402.2,159.7,402.2,160.7z"/>
	<path class="st10" d="M422.3,153.5v7.7c0,1.1-0.3,1.9-1,2.6c-0.7,0.7-1.6,1.1-2.7,1.1l-0.4,0c-1.3,0-2.2-0.3-3-1
		c-0.7-0.7-1.1-1.6-1.1-2.8v-7.8h1.5v7.7c0,0.8,0.2,1.5,0.7,1.9c0.5,0.5,1.1,0.7,1.9,0.7c0.9,0,1.5-0.2,2-0.7s0.7-1.1,0.7-1.9v-7.7
		C420.8,153.5,422.3,153.5,422.3,153.5z"/>
	<path class="st10" d="M425.8,156.4l0,1.1c0.6-0.8,1.5-1.2,2.5-1.2c1.8,0,2.7,1,2.7,3v5.6h-1.5v-5.6c0-0.6-0.1-1.1-0.4-1.3
		c-0.3-0.3-0.7-0.4-1.3-0.4c-0.5,0-0.9,0.1-1.2,0.4s-0.6,0.6-0.8,1v6h-1.5v-8.4H425.8z"/>
	<path class="st10" d="M433.2,154.2c0-0.2,0.1-0.4,0.2-0.6c0.1-0.2,0.4-0.2,0.6-0.2s0.5,0.1,0.6,0.2c0.1,0.2,0.2,0.4,0.2,0.6
		s-0.1,0.4-0.2,0.6c-0.1,0.2-0.4,0.2-0.6,0.2s-0.5-0.1-0.6-0.2C433.3,154.6,433.2,154.4,433.2,154.2z M434.8,164.9h-1.5v-8.4h1.5
		V164.9z"/>
	<path class="st10" d="M439.1,154.4v2.1h1.6v1.1h-1.6v5.3c0,0.3,0.1,0.6,0.2,0.8c0.1,0.2,0.4,0.3,0.7,0.3c0.2,0,0.4,0,0.7-0.1v1.2
		c-0.4,0.1-0.8,0.2-1.1,0.2c-0.6,0-1.1-0.2-1.5-0.6s-0.5-0.9-0.5-1.7v-5.2h-1.5v-1.1h1.5v-2.1H439.1z"/>
	<path class="st10" d="M453,159.6H448v4h5.7v1.2h-7.2v-11.4h7.1v1.2H448v3.7h4.9V159.6z"/>
	<path class="st10" d="M458.2,159.5l1.9-3.1h1.7l-2.8,4.2l2.9,4.3h-1.7l-2-3.2l-2,3.2h-1.7l2.9-4.3l-2.8-4.2h1.7L458.2,159.5z"/>
	<path class="st10" d="M463.3,154.2c0-0.2,0.1-0.4,0.2-0.6c0.1-0.2,0.4-0.2,0.6-0.2s0.5,0.1,0.6,0.2c0.1,0.2,0.2,0.4,0.2,0.6
		s-0.1,0.4-0.2,0.6c-0.1,0.2-0.4,0.2-0.6,0.2s-0.5-0.1-0.6-0.2C463.4,154.6,463.3,154.4,463.3,154.2z M464.9,164.9h-1.5v-8.4h1.5
		V164.9z"/>
	<path class="st10" d="M469.2,154.4v2.1h1.6v1.1h-1.6v5.3c0,0.3,0.1,0.6,0.2,0.8c0.1,0.2,0.4,0.3,0.7,0.3c0.2,0,0.4,0,0.7-0.1v1.2
		c-0.4,0.1-0.8,0.2-1.1,0.2c-0.6,0-1.1-0.2-1.5-0.6s-0.5-0.9-0.5-1.7v-5.2h-1.5v-1.1h1.5v-2.1H469.2z"/>
</g>
<g>
	<g>
		<line class="st5" x1="132.4" y1="652" x2="553.8" y2="543.8"/>
		<g>
			<polygon class="st0" points="553.6,550.1 562.1,541.7 550.6,538.5 			"/>
		</g>
	</g>
</g>
<g class="st1">
	<polyline class="st2" points="132.4,514.1 132.4,680.4 563.5,680.6 	"/>
	<line class="st3" x1="132.8" y1="516.7" x2="563.9" y2="516.7"/>
	<line class="st3" x1="132.8" y1="527.6" x2="563.9" y2="527.6"/>
	<line class="st3" x1="132.8" y1="538.5" x2="563.9" y2="538.5"/>
	<line class="st3" x1="132.8" y1="549.5" x2="563.9" y2="549.5"/>
	<line class="st3" x1="132.8" y1="560.4" x2="563.9" y2="560.4"/>
	<line class="st2" x1="132.8" y1="571.3" x2="563.9" y2="571.3"/>
	<line class="st3" x1="132.8" y1="582.3" x2="563.9" y2="582.3"/>
	<line class="st3" x1="132.8" y1="593.2" x2="563.9" y2="593.2"/>
	<line class="st3" x1="132.8" y1="604.1" x2="563.9" y2="604.1"/>
	<line class="st3" x1="132.8" y1="615.1" x2="563.9" y2="615.1"/>
	<line class="st2" x1="132.8" y1="626" x2="563.9" y2="626"/>
	<line class="st3" x1="132.8" y1="636.9" x2="563.9" y2="636.9"/>
	<line class="st3" x1="132.8" y1="647.9" x2="563.9" y2="647.9"/>
	<line class="st3" x1="132.8" y1="658.8" x2="563.9" y2="658.8"/>
	<line class="st3" x1="132.8" y1="669.7" x2="563.9" y2="669.7"/>
	<line class="st2" x1="240.4" y1="516.7" x2="240.4" y2="680.4"/>
	<line class="st2" x1="348.1" y1="516.7" x2="348.1" y2="680.4"/>
	<line class="st2" x1="455.7" y1="516.7" x2="455.7" y2="680.4"/>
	<line class="st4" x1="563.4" y1="516.7" x2="563.4" y2="680.4"/>
</g>
<g>
	<g>
		<line class="st6" x1="132.4" y1="631.6" x2="554.9" y2="566.2"/>
		<g>
			<polygon class="st7" points="554.1,572.3 563.4,564.8 552.3,560.5 			"/>
		</g>
	</g>
</g>
<g>
	<path class="st0" d="M579.5,541.6h-3.1v3.2h-1.6V537h5.1v1.3h-3.5v2h3.1V541.6z"/>
	<path class="st0" d="M580.7,537.5c0-0.2,0.1-0.4,0.2-0.6c0.2-0.1,0.4-0.2,0.6-0.2s0.5,0.1,0.6,0.2c0.2,0.2,0.2,0.3,0.2,0.6
		s-0.1,0.4-0.2,0.6c-0.2,0.2-0.4,0.2-0.6,0.2s-0.5-0.1-0.6-0.2S580.7,537.8,580.7,537.5z M582.4,544.8h-1.6V539h1.6V544.8z"/>
	<path class="st0" d="M585.1,539l0,0.7c0.4-0.5,1-0.8,1.7-0.8c0.6,0,1.1,0.2,1.4,0.5c0.3,0.4,0.5,0.9,0.5,1.6v3.8h-1.5v-3.7
		c0-0.3-0.1-0.6-0.2-0.7c-0.1-0.1-0.4-0.2-0.7-0.2c-0.4,0-0.8,0.2-1,0.6v4.1h-1.5V539L585.1,539L585.1,539z"/>
	<path class="st0" d="M593.2,544.8c-0.1-0.1-0.1-0.3-0.2-0.5c-0.4,0.4-0.9,0.6-1.5,0.6c-0.6,0-1-0.2-1.4-0.5
		c-0.4-0.3-0.6-0.8-0.6-1.3c0-0.6,0.2-1.1,0.7-1.4c0.5-0.3,1.1-0.5,2-0.5h0.7V541c0-0.3-0.1-0.5-0.2-0.6c-0.1-0.2-0.4-0.2-0.7-0.2
		c-0.3,0-0.5,0.1-0.6,0.2c-0.2,0.1-0.2,0.3-0.2,0.5h-1.5c0-0.3,0.1-0.7,0.3-0.9c0.2-0.3,0.5-0.5,0.9-0.7c0.4-0.2,0.8-0.2,1.3-0.2
		c0.7,0,1.3,0.2,1.7,0.5c0.4,0.4,0.6,0.9,0.6,1.5v2.5c0,0.5,0.1,1,0.2,1.3v0.1L593.2,544.8L593.2,544.8z M591.9,543.8
		c0.2,0,0.4,0,0.6-0.1c0.2-0.1,0.3-0.2,0.4-0.4v-1h-0.6c-0.8,0-1.2,0.3-1.2,0.8l0,0.1c0,0.2,0.1,0.3,0.2,0.5
		C591.5,543.7,591.7,543.8,591.9,543.8z"/>
	<path class="st0" d="M597.2,539l0,0.7c0.4-0.5,1-0.8,1.7-0.8c0.6,0,1.1,0.2,1.4,0.5c0.3,0.4,0.5,0.9,0.5,1.6v3.8h-1.5v-3.7
		c0-0.3-0.1-0.6-0.2-0.7c-0.1-0.1-0.4-0.2-0.7-0.2c-0.4,0-0.8,0.2-1,0.6v4.1h-1.5V539L597.2,539L597.2,539z"/>
	<path class="st0" d="M604.3,543.7c0.3,0,0.5-0.1,0.7-0.2c0.2-0.2,0.3-0.4,0.3-0.6h1.5c0,0.4-0.1,0.8-0.3,1.1
		c-0.2,0.3-0.5,0.6-0.9,0.8c-0.4,0.2-0.8,0.3-1.2,0.3c-0.8,0-1.5-0.3-2-0.8c-0.5-0.5-0.7-1.3-0.7-2.2v-0.1c0-0.9,0.2-1.6,0.7-2.1
		c0.5-0.5,1.1-0.8,2-0.8c0.7,0,1.3,0.2,1.8,0.6c0.4,0.4,0.7,1,0.7,1.7h-1.5c0-0.3-0.1-0.5-0.3-0.7c-0.2-0.2-0.4-0.3-0.7-0.3
		c-0.4,0-0.6,0.1-0.8,0.4c-0.2,0.3-0.3,0.7-0.3,1.3v0.2c0,0.6,0.1,1,0.3,1.3S603.9,543.7,604.3,543.7z"/>
	<path class="st0" d="M607.6,537.5c0-0.2,0.1-0.4,0.2-0.6c0.2-0.1,0.4-0.2,0.6-0.2c0.3,0,0.5,0.1,0.6,0.2c0.2,0.2,0.2,0.3,0.2,0.6
		s-0.1,0.4-0.2,0.6c-0.2,0.2-0.4,0.2-0.6,0.2s-0.5-0.1-0.6-0.2C607.7,538,607.6,537.8,607.6,537.5z M609.3,544.8h-1.6V539h1.6V544.8
		z"/>
	<path class="st0" d="M612,539l0,0.7c0.4-0.5,1-0.8,1.7-0.8c0.6,0,1.1,0.2,1.4,0.5c0.3,0.4,0.5,0.9,0.5,1.6v3.8H614v-3.7
		c0-0.3-0.1-0.6-0.2-0.7c-0.1-0.1-0.4-0.2-0.7-0.2c-0.4,0-0.8,0.2-1,0.6v4.1h-1.5V539L612,539L612,539z"/>
	<path class="st0" d="M616.5,541.9c0-0.9,0.2-1.6,0.6-2.1c0.4-0.5,1-0.8,1.7-0.8c0.6,0,1.1,0.2,1.5,0.7l0.1-0.5h1.4v5.6
		c0,0.5-0.1,1-0.3,1.3s-0.6,0.7-1,0.9c-0.4,0.2-0.9,0.3-1.5,0.3c-0.4,0-0.8-0.1-1.3-0.3c-0.4-0.2-0.7-0.4-0.9-0.7l0.7-1
		c0.4,0.4,0.9,0.7,1.4,0.7c0.4,0,0.7-0.1,1-0.3c0.2-0.2,0.3-0.5,0.3-0.9v-0.3c-0.4,0.4-0.8,0.6-1.4,0.6c-0.7,0-1.3-0.3-1.7-0.8
		C616.7,543.6,616.5,542.9,616.5,541.9L616.5,541.9L616.5,541.9z M618,542c0,0.5,0.1,0.9,0.3,1.2s0.5,0.5,0.9,0.5
		c0.5,0,0.8-0.2,1-0.5v-2.5c-0.2-0.4-0.5-0.5-1-0.5c-0.4,0-0.7,0.2-0.9,0.5C618.1,540.9,618,541.4,618,542z"/>
	<path class="st0" d="M626.2,544.8v-4.7h-0.9V539h0.9v-0.5c0-0.6,0.2-1.2,0.6-1.5s0.9-0.5,1.6-0.5c0.2,0,0.5,0,0.8,0.1l0,1.2
		c-0.1,0-0.3,0-0.5,0c-0.6,0-0.9,0.3-0.9,0.8v0.5h1.2v1.1h-1.2v4.7H626.2L626.2,544.8z"/>
	<path class="st0" d="M629.4,541.9c0-0.6,0.1-1.1,0.3-1.5c0.2-0.5,0.5-0.8,1-1c0.4-0.3,0.9-0.4,1.5-0.4c0.8,0,1.4,0.2,1.9,0.7
		c0.5,0.5,0.8,1.1,0.8,2l0,0.4c0,0.9-0.3,1.6-0.8,2.2c-0.5,0.5-1.2,0.8-2,0.8s-1.5-0.3-2-0.8C629.7,543.6,629.4,542.9,629.4,541.9
		L629.4,541.9L629.4,541.9z M631,542c0,0.5,0.1,1,0.3,1.3c0.2,0.3,0.5,0.4,0.9,0.4c0.4,0,0.7-0.1,0.9-0.4s0.3-0.8,0.3-1.4
		c0-0.5-0.1-1-0.3-1.3c-0.2-0.3-0.5-0.5-0.9-0.5s-0.7,0.2-0.9,0.4C631.1,540.9,631,541.4,631,542z"/>
	<path class="st0" d="M639.2,540.5c-0.2,0-0.4,0-0.6,0c-0.6,0-1,0.2-1.2,0.6v3.8h-1.5V539h1.5l0,0.7c0.3-0.5,0.7-0.8,1.3-0.8
		c0.2,0,0.3,0,0.5,0.1L639.2,540.5z"/>
	<path class="st0" d="M644.3,543.5h3.4v1.3h-5V537h1.6L644.3,543.5L644.3,543.5z"/>
	<path class="st0" d="M648.6,537.5c0-0.2,0.1-0.4,0.2-0.6c0.2-0.1,0.4-0.2,0.6-0.2s0.5,0.1,0.6,0.2c0.2,0.2,0.2,0.3,0.2,0.6
		s-0.1,0.4-0.2,0.6c-0.2,0.2-0.4,0.2-0.6,0.2s-0.5-0.1-0.6-0.2S648.6,537.8,648.6,537.5z M650.2,544.8h-1.6V539h1.6V544.8z"/>
	<path class="st0" d="M651.3,541.9c0-0.9,0.2-1.6,0.6-2.2c0.4-0.5,1-0.8,1.7-0.8c0.6,0,1.1,0.2,1.5,0.7l0.1-0.6h1.4v8h-1.6v-2.7
		c-0.4,0.4-0.8,0.6-1.4,0.6c-0.7,0-1.2-0.3-1.7-0.8C651.5,543.6,651.3,542.8,651.3,541.9z M652.8,542c0,0.6,0.1,1,0.3,1.3
		c0.2,0.3,0.5,0.4,0.8,0.4c0.5,0,0.8-0.2,1-0.6v-2.4c-0.2-0.4-0.5-0.5-1-0.5c-0.4,0-0.6,0.1-0.8,0.4
		C652.9,540.9,652.8,541.4,652.8,542z"/>
	<path class="st0" d="M661.2,544.2c-0.4,0.5-0.9,0.7-1.6,0.7c-0.6,0-1.1-0.2-1.4-0.5s-0.5-0.9-0.5-1.6V539h1.5v3.8
		c0,0.6,0.3,0.9,0.8,0.9c0.5,0,0.9-0.2,1.1-0.5V539h1.6v5.8h-1.5L661.2,544.2z"/>
	<path class="st0" d="M663.9,537.5c0-0.2,0.1-0.4,0.2-0.6c0.2-0.1,0.4-0.2,0.6-0.2s0.5,0.1,0.6,0.2c0.2,0.2,0.2,0.3,0.2,0.6
		s-0.1,0.4-0.2,0.6c-0.2,0.2-0.4,0.2-0.6,0.2s-0.5-0.1-0.6-0.2S663.9,537.8,663.9,537.5z M665.5,544.8H664V539h1.6V544.8z"/>
	<path class="st0" d="M666.5,541.9c0-0.9,0.2-1.6,0.6-2.2c0.4-0.5,1-0.8,1.7-0.8c0.6,0,1,0.2,1.4,0.6v-3h1.6v8.3h-1.4l-0.1-0.6
		c-0.4,0.5-0.9,0.7-1.5,0.7c-0.7,0-1.2-0.3-1.7-0.8C666.8,543.6,666.5,542.8,666.5,541.9z M668.1,542c0,0.5,0.1,1,0.3,1.3
		c0.2,0.3,0.5,0.4,0.8,0.4c0.5,0,0.8-0.2,1-0.6v-2.3c-0.2-0.4-0.5-0.6-1-0.6C668.5,540.2,668.1,540.8,668.1,542z"/>
	<path class="st0" d="M673,537.5c0-0.2,0.1-0.4,0.2-0.6c0.2-0.1,0.4-0.2,0.6-0.2c0.3,0,0.5,0.1,0.6,0.2c0.2,0.2,0.2,0.3,0.2,0.6
		s-0.1,0.4-0.2,0.6c-0.2,0.2-0.4,0.2-0.6,0.2s-0.5-0.1-0.6-0.2C673.1,538,673,537.8,673,537.5z M674.6,544.8h-1.6V539h1.6V544.8z"/>
	<path class="st0" d="M677.8,537.6v1.4h1v1.1h-1v2.9c0,0.2,0,0.4,0.1,0.5c0.1,0.1,0.2,0.1,0.5,0.1c0.2,0,0.3,0,0.5,0v1.2
		c-0.3,0.1-0.6,0.1-0.9,0.1c-1.1,0-1.6-0.5-1.7-1.6v-3.1h-0.8V539h0.8v-1.4H677.8z"/>
	<path class="st0" d="M681.8,542.6l1.1-3.6h1.7l-2.3,6.7l-0.1,0.3c-0.3,0.8-0.9,1.1-1.7,1.1c-0.2,0-0.5,0-0.7-0.1v-1.2l0.2,0
		c0.3,0,0.5,0,0.7-0.1c0.1-0.1,0.3-0.2,0.3-0.5l0.2-0.5l-2-5.8h1.7L681.8,542.6z"/>
</g>
<g>
	<path class="st8" d="M578.9,566.8c0-0.3-0.1-0.5-0.3-0.7c-0.2-0.2-0.6-0.3-1.2-0.5s-1-0.4-1.3-0.5c-0.9-0.5-1.3-1.1-1.3-1.9
		c0-0.4,0.1-0.8,0.4-1.1s0.6-0.6,1-0.8s1-0.3,1.5-0.3c0.6,0,1.1,0.1,1.5,0.3c0.4,0.2,0.8,0.5,1,0.9s0.4,0.8,0.4,1.3h-1.6
		c0-0.4-0.1-0.6-0.3-0.8c-0.2-0.2-0.5-0.3-1-0.3c-0.4,0-0.7,0.1-0.9,0.3c-0.2,0.2-0.3,0.4-0.3,0.7c0,0.3,0.1,0.5,0.4,0.6
		c0.3,0.2,0.6,0.3,1.1,0.5c0.9,0.3,1.6,0.6,2,1c0.4,0.4,0.6,0.9,0.6,1.5c0,0.7-0.3,1.2-0.8,1.6s-1.2,0.6-2.1,0.6
		c-0.6,0-1.1-0.1-1.6-0.3c-0.5-0.2-0.9-0.5-1.1-0.9c-0.3-0.4-0.4-0.8-0.4-1.3h1.6c0,0.9,0.5,1.3,1.5,1.3c0.4,0,0.7-0.1,0.9-0.2
		C578.8,567.3,578.9,567.1,578.9,566.8z"/>
	<path class="st8" d="M584.2,568.9c-0.8,0-1.5-0.3-2.1-0.8c-0.5-0.5-0.8-1.2-0.8-2.1v-0.1c0-0.6,0.1-1.1,0.3-1.6s0.5-0.8,1-1.1
		c0.4-0.3,0.9-0.4,1.4-0.4c0.8,0,1.4,0.3,1.9,0.8s0.7,1.2,0.7,2.1v0.6h-3.7c0,0.4,0.2,0.7,0.5,0.9c0.3,0.2,0.6,0.3,1,0.3
		c0.6,0,1.1-0.2,1.4-0.7l0.8,0.9c-0.2,0.3-0.5,0.6-1,0.8C585.1,568.8,584.7,568.9,584.2,568.9z M584,564.2c-0.3,0-0.6,0.1-0.8,0.3
		c-0.2,0.2-0.3,0.5-0.4,0.9h2.2v-0.1c0-0.3-0.1-0.6-0.3-0.8C584.6,564.3,584.3,564.2,584,564.2z"/>
	<path class="st8" d="M589.1,568.8h-1.6v-8.3h1.6V568.8z"/>
	<path class="st8" d="M592,568.8h-1.6v-8.3h1.6V568.8z"/>
	<path class="st8" d="M593.3,561.5c0-0.2,0.1-0.4,0.2-0.6c0.2-0.2,0.4-0.2,0.6-0.2c0.3,0,0.5,0.1,0.6,0.2c0.2,0.1,0.2,0.3,0.2,0.6
		s-0.1,0.4-0.2,0.6c-0.2,0.1-0.4,0.2-0.6,0.2s-0.5-0.1-0.6-0.2C593.3,561.9,593.3,561.8,593.3,561.5z M594.9,568.8h-1.6V563h1.6
		V568.8z"/>
	<path class="st8" d="M597.6,563l0,0.7c0.4-0.5,1-0.8,1.7-0.8c0.6,0,1.1,0.2,1.4,0.5c0.3,0.4,0.5,0.9,0.5,1.6v3.8h-1.5v-3.7
		c0-0.3-0.1-0.6-0.2-0.7c-0.1-0.1-0.4-0.2-0.7-0.2c-0.4,0-0.8,0.2-1,0.6v4.1h-1.5V563L597.6,563L597.6,563z"/>
	<path class="st8" d="M602.1,565.9c0-0.9,0.2-1.6,0.6-2.1c0.4-0.5,1-0.8,1.7-0.8c0.6,0,1.1,0.2,1.5,0.7l0.1-0.5h1.4v5.6
		c0,0.5-0.1,1-0.3,1.3s-0.6,0.7-1,0.9c-0.4,0.2-0.9,0.3-1.5,0.3c-0.4,0-0.8-0.1-1.3-0.3c-0.4-0.2-0.7-0.4-0.9-0.7l0.7-1
		c0.4,0.4,0.9,0.7,1.4,0.7c0.4,0,0.7-0.1,1-0.3c0.2-0.2,0.3-0.5,0.3-0.9v-0.3c-0.4,0.4-0.8,0.6-1.4,0.6c-0.7,0-1.3-0.3-1.7-0.8
		C602.3,567.6,602.1,566.9,602.1,565.9L602.1,565.9L602.1,565.9z M603.7,566c0,0.5,0.1,0.9,0.3,1.2s0.5,0.5,0.9,0.5
		c0.5,0,0.8-0.2,1-0.5v-2.5c-0.2-0.4-0.5-0.5-1-0.5c-0.4,0-0.7,0.2-0.9,0.5C603.8,564.9,603.7,565.4,603.7,566z"/>
	<path class="st8" d="M611.8,568.8v-4.7h-0.9V563h0.9v-0.5c0-0.6,0.2-1.2,0.6-1.5s0.9-0.5,1.6-0.5c0.2,0,0.5,0,0.8,0.1l0,1.2
		c-0.1,0-0.3,0-0.5,0c-0.6,0-0.9,0.3-0.9,0.8v0.5h1.2v1.1h-1.2v4.7H611.8L611.8,568.8z"/>
	<path class="st8" d="M615.1,565.9c0-0.6,0.1-1.1,0.3-1.5c0.2-0.5,0.5-0.8,1-1c0.4-0.3,0.9-0.4,1.5-0.4c0.8,0,1.4,0.2,1.9,0.7
		c0.5,0.5,0.8,1.1,0.8,2l0,0.4c0,0.9-0.3,1.6-0.8,2.2c-0.5,0.5-1.2,0.8-2,0.8s-1.5-0.3-2-0.8C615.3,567.6,615.1,566.9,615.1,565.9
		L615.1,565.9L615.1,565.9z M616.6,566c0,0.5,0.1,1,0.3,1.3c0.2,0.3,0.5,0.4,0.9,0.4c0.4,0,0.7-0.1,0.9-0.4s0.3-0.8,0.3-1.4
		c0-0.5-0.1-1-0.3-1.3c-0.2-0.3-0.5-0.5-0.9-0.5s-0.7,0.2-0.9,0.4C616.7,564.9,616.6,565.4,616.6,566z"/>
	<path class="st8" d="M624.8,564.5c-0.2,0-0.4,0-0.6,0c-0.6,0-1,0.2-1.2,0.6v3.8h-1.5V563h1.5l0,0.7c0.3-0.5,0.7-0.8,1.3-0.8
		c0.2,0,0.3,0,0.5,0.1L624.8,564.5z"/>
	<path class="st8" d="M630,567.5h3.4v1.3h-5V561h1.6L630,567.5L630,567.5z"/>
	<path class="st8" d="M634.2,561.5c0-0.2,0.1-0.4,0.2-0.6c0.2-0.2,0.4-0.2,0.6-0.2s0.5,0.1,0.6,0.2c0.2,0.1,0.2,0.3,0.2,0.6
		s-0.1,0.4-0.2,0.6c-0.2,0.1-0.4,0.2-0.6,0.2s-0.5-0.1-0.6-0.2S634.2,561.8,634.2,561.5z M635.9,568.8h-1.6V563h1.6V568.8z"/>
	<path class="st8" d="M636.9,565.9c0-0.9,0.2-1.6,0.6-2.2c0.4-0.5,1-0.8,1.7-0.8c0.6,0,1.1,0.2,1.5,0.7l0.1-0.6h1.4v8h-1.6v-2.7
		c-0.4,0.4-0.8,0.6-1.4,0.6c-0.7,0-1.2-0.3-1.7-0.8C637.1,567.6,636.9,566.8,636.9,565.9z M638.5,566c0,0.6,0.1,1,0.3,1.3
		c0.2,0.3,0.5,0.4,0.8,0.4c0.5,0,0.8-0.2,1-0.6v-2.4c-0.2-0.4-0.5-0.5-1-0.5c-0.4,0-0.6,0.1-0.8,0.4
		C638.6,564.9,638.5,565.4,638.5,566z"/>
	<path class="st8" d="M646.8,568.2c-0.4,0.5-0.9,0.7-1.6,0.7c-0.6,0-1.1-0.2-1.4-0.5s-0.5-0.9-0.5-1.6V563h1.5v3.8
		c0,0.6,0.3,0.9,0.8,0.9c0.5,0,0.9-0.2,1.1-0.5V563h1.6v5.8h-1.5L646.8,568.2z"/>
	<path class="st8" d="M649.5,561.5c0-0.2,0.1-0.4,0.2-0.6c0.2-0.2,0.4-0.2,0.6-0.2s0.5,0.1,0.6,0.2c0.2,0.1,0.2,0.3,0.2,0.6
		s-0.1,0.4-0.2,0.6c-0.2,0.1-0.4,0.2-0.6,0.2s-0.5-0.1-0.6-0.2S649.5,561.8,649.5,561.5z M651.2,568.8h-1.6V563h1.6V568.8z"/>
	<path class="st8" d="M652.2,565.9c0-0.9,0.2-1.6,0.6-2.2c0.4-0.5,1-0.8,1.7-0.8c0.6,0,1,0.2,1.4,0.6v-3h1.6v8.3H656l-0.1-0.6
		c-0.4,0.5-0.9,0.7-1.5,0.7c-0.7,0-1.2-0.3-1.7-0.8C652.4,567.6,652.2,566.8,652.2,565.9z M653.8,566c0,0.5,0.1,1,0.3,1.3
		c0.2,0.3,0.5,0.4,0.8,0.4c0.5,0,0.8-0.2,1-0.6v-2.3c-0.2-0.4-0.5-0.6-1-0.6C654.1,564.2,653.8,564.8,653.8,566z"/>
	<path class="st8" d="M658.6,561.5c0-0.2,0.1-0.4,0.2-0.6c0.2-0.2,0.4-0.2,0.6-0.2c0.3,0,0.5,0.1,0.6,0.2c0.2,0.1,0.2,0.3,0.2,0.6
		s-0.1,0.4-0.2,0.6c-0.2,0.1-0.4,0.2-0.6,0.2s-0.5-0.1-0.6-0.2C658.7,561.9,658.6,561.8,658.6,561.5z M660.3,568.8h-1.6V563h1.6
		V568.8z"/>
	<path class="st8" d="M663.4,561.6v1.4h1v1.1h-1v2.9c0,0.2,0,0.4,0.1,0.5c0.1,0.1,0.2,0.1,0.5,0.1c0.2,0,0.3,0,0.5,0v1.2
		c-0.3,0.1-0.6,0.1-0.9,0.1c-1.1,0-1.6-0.5-1.7-1.6v-3.1H661V563h0.8v-1.4H663.4z"/>
	<path class="st8" d="M667.4,566.6l1.1-3.6h1.7l-2.3,6.7l-0.1,0.3c-0.3,0.8-0.9,1.1-1.7,1.1c-0.2,0-0.5,0-0.7-0.1v-1.2l0.2,0
		c0.3,0,0.5,0,0.7-0.1c0.1-0.1,0.3-0.2,0.3-0.5l0.2-0.5l-2-5.8h1.7L667.4,566.6z"/>
</g>
<g>
	<path class="st8" d="M75.2,678.4v3.3l1.9,0.6v2l-9.2-3.4v-1.8l9.2-3.5v2L75.2,678.4z M73.7,681.2v-2.3l-3.5,1.2L73.7,681.2z"/>
	<path class="st8" d="M73.3,669.3v3.7h3.8v1.9h-9.2v-6h1.5v4.1h2.4v-3.7L73.3,669.3L73.3,669.3z"/>
	<path class="st8" d="M69.4,660.6v2.8h7.7v1.9h-7.7v2.8h-1.5v-7.5L69.4,660.6L69.4,660.6z"/>
	<path class="st8" d="M73.1,654v3.7h2.5v-4.3h1.5v6.2h-9.3v-6.2h1.5v4.3h2.2V654L73.1,654L73.1,654z"/>
	<path class="st8" d="M73.7,648.8v1.5h3.4v1.9h-9.2v-3.4c0-1.1,0.2-1.9,0.7-2.5c0.5-0.6,1.2-0.9,2.1-0.9c0.6,0,1.2,0.1,1.6,0.4
		c0.4,0.3,0.8,0.7,1,1.2l3.8-2h0.1v2L73.7,648.8z M72.2,650.3v-1.5c0-0.5-0.1-0.8-0.4-1.1c-0.2-0.3-0.6-0.4-1-0.4
		c-0.4,0-0.8,0.1-1,0.4s-0.4,0.6-0.4,1.1v1.5L72.2,650.3L72.2,650.3z"/>
	<path class="st8" d="M73.9,640.5v3.6h-1.5v-3.6H73.9z"/>
	<path class="st8" d="M69.4,631.9v2.8h7.7v1.9h-7.7v2.8h-1.5v-7.5L69.4,631.9L69.4,631.9z"/>
	<path class="st8" d="M75.2,626.4v3.3l1.9,0.6v2l-9.2-3.4v-1.8l9.2-3.5v2L75.2,626.4z M73.7,629.2v-2.3l-3.5,1.2L73.7,629.2z"/>
	<path class="st8" d="M71.1,619.5l-3.2-1.7v-2.2l4.6,2.7l4.7-2.8v2.2l-3.2,1.8l3.2,1.8v2.2l-4.7-2.8l-4.6,2.7v-2.2L71.1,619.5z"/>
	<path class="st8" d="M73.9,609.5h3.3v1.9h-9.3v-3.6c0-0.7,0.1-1.3,0.4-1.8s0.6-0.9,1.1-1.2c0.5-0.3,1-0.4,1.6-0.4
		c0.9,0,1.6,0.3,2.1,0.9c0.5,0.6,0.8,1.5,0.8,2.6L73.9,609.5L73.9,609.5z M72.3,609.5v-1.7c0-0.5-0.1-0.9-0.4-1.2s-0.6-0.4-1-0.4
		c-0.4,0-0.8,0.1-1.1,0.4s-0.4,0.6-0.4,1.1v1.8L72.3,609.5L72.3,609.5z"/>
	<path class="st8" d="M72.7,595.4c0.9,0,1.7,0.2,2.4,0.5s1.2,0.8,1.6,1.4c0.4,0.6,0.6,1.3,0.6,2.1s-0.2,1.5-0.6,2
		c-0.4,0.6-0.9,1.1-1.6,1.4c-0.7,0.3-1.5,0.5-2.4,0.5h-0.5c-0.9,0-1.7-0.2-2.4-0.5c-0.7-0.3-1.2-0.8-1.6-1.4c-0.4-0.6-0.6-1.3-0.6-2
		s0.2-1.5,0.6-2c0.4-0.6,0.9-1.1,1.6-1.4c0.7-0.3,1.5-0.5,2.4-0.5L72.7,595.4L72.7,595.4z M72.3,597.3c-1,0-1.7,0.2-2.2,0.5
		s-0.8,0.8-0.8,1.5c0,0.6,0.3,1.1,0.8,1.5s1.2,0.5,2.2,0.5h0.5c0.9,0,1.7-0.2,2.2-0.5c0.5-0.4,0.8-0.8,0.8-1.5
		c0-0.6-0.3-1.1-0.8-1.5c-0.5-0.3-1.2-0.5-2.2-0.5L72.3,597.3L72.3,597.3z"/>
	<path class="st8" d="M74.7,589.2c-0.4,0-0.6,0.1-0.8,0.4c-0.2,0.3-0.4,0.7-0.6,1.4c-0.2,0.7-0.4,1.2-0.6,1.6
		c-0.6,1-1.3,1.6-2.3,1.6c-0.5,0-0.9-0.1-1.3-0.4c-0.4-0.3-0.7-0.7-0.9-1.2c-0.2-0.5-0.3-1.1-0.3-1.8c0-0.7,0.1-1.3,0.4-1.8
		c0.2-0.5,0.6-0.9,1-1.2c0.4-0.3,0.9-0.4,1.5-0.4v1.9c-0.4,0-0.8,0.1-1,0.4c-0.2,0.3-0.3,0.6-0.3,1.1c0,0.5,0.1,0.8,0.3,1.1
		c0.2,0.3,0.5,0.4,0.8,0.4c0.3,0,0.6-0.2,0.8-0.5s0.4-0.8,0.6-1.3c0.3-1.1,0.7-1.9,1.2-2.4c0.5-0.5,1.1-0.7,1.8-0.7
		c0.8,0,1.4,0.3,1.9,0.9c0.5,0.6,0.7,1.4,0.7,2.4c0,0.7-0.1,1.4-0.4,1.9c-0.3,0.6-0.6,1-1.1,1.3c-0.5,0.3-1,0.5-1.6,0.5v-1.9
		c1,0,1.5-0.6,1.5-1.8c0-0.5-0.1-0.8-0.3-1.1C75.3,589.3,75,589.2,74.7,589.2z"/>
	<path class="st8" d="M77.1,584v1.9h-9.2V584H77.1z"/>
	<path class="st8" d="M69.4,575.3v2.8h7.7v1.9h-7.7v2.8h-1.5v-7.5L69.4,575.3L69.4,575.3z"/>
	<path class="st8" d="M77.1,572.1v1.9h-9.2v-1.9H77.1z"/>
	<path class="st8" d="M72.7,562.8c0.9,0,1.7,0.2,2.4,0.5s1.2,0.8,1.6,1.4c0.4,0.6,0.6,1.3,0.6,2.1c0,0.8-0.2,1.5-0.6,2
		c-0.4,0.6-0.9,1.1-1.6,1.4c-0.7,0.3-1.5,0.5-2.4,0.5h-0.5c-0.9,0-1.7-0.2-2.4-0.5c-0.7-0.3-1.2-0.8-1.6-1.4c-0.4-0.6-0.6-1.3-0.6-2
		c0-0.8,0.2-1.5,0.6-2c0.4-0.6,0.9-1.1,1.6-1.4c0.7-0.3,1.5-0.5,2.4-0.5L72.7,562.8L72.7,562.8z M72.3,564.7c-1,0-1.7,0.2-2.2,0.5
		s-0.8,0.8-0.8,1.5c0,0.6,0.3,1.1,0.8,1.5c0.5,0.3,1.2,0.5,2.2,0.5h0.5c0.9,0,1.7-0.2,2.2-0.5c0.5-0.3,0.8-0.9,0.8-1.5
		c0-0.6-0.3-1.1-0.8-1.5c-0.5-0.3-1.2-0.5-2.2-0.5L72.3,564.7L72.3,564.7z"/>
	<path class="st8" d="M77.1,553.9v1.9l-6.1,3.7h6.1v1.9h-9.2v-1.9l6.1-3.7h-6.1v-1.9H77.1z"/>
	<path class="st8" d="M74.8,545.6l-7-2.1v-2.1l9.2,3.2v2l-9.2,3.2v-2.1L74.8,545.6z"/>
	<path class="st8" d="M75.2,535.8v3.3l1.9,0.6v2l-9.2-3.4v-1.8l9.2-3.5v2L75.2,535.8z M73.7,538.6v-2.3l-3.5,1.2L73.7,538.6z"/>
	<path class="st8" d="M75.6,530.3v-4h1.5v6h-9.2v-1.9L75.6,530.3L75.6,530.3z"/>
	<path class="st8" d="M67.9,518.3H74c1,0,1.8,0.3,2.4,1c0.6,0.6,0.9,1.5,0.9,2.6c0,1.1-0.3,1.9-0.9,2.6s-1.4,1-2.3,1h-6.2v-1.9H74
		c0.6,0,1.1-0.1,1.3-0.4c0.3-0.3,0.4-0.7,0.4-1.2c0-1.1-0.6-1.6-1.7-1.6h-6.2V518.3z"/>
	<path class="st8" d="M73.1,511.2v3.7h2.5v-4.3h1.5v6.2h-9.3v-6.2h1.5v4.3h2.2v-3.7L73.1,511.2L73.1,511.2z"/>
</g>
<g>
	<path class="st8" d="M288.6,725.3c0-0.4-0.1-0.6-0.4-0.8s-0.7-0.4-1.4-0.6c-0.7-0.2-1.2-0.4-1.6-0.6c-1.1-0.6-1.6-1.3-1.6-2.3
		c0-0.5,0.1-1,0.4-1.3s0.7-0.7,1.2-0.9c0.5-0.2,1.1-0.3,1.8-0.3c0.7,0,1.3,0.1,1.8,0.4c0.5,0.2,0.9,0.6,1.2,1
		c0.3,0.4,0.4,0.9,0.4,1.5h-1.9c0-0.4-0.1-0.8-0.4-1c-0.3-0.2-0.6-0.3-1.1-0.3c-0.5,0-0.8,0.1-1.1,0.3c-0.3,0.2-0.4,0.5-0.4,0.8
		c0,0.3,0.1,0.5,0.4,0.8c0.3,0.2,0.8,0.4,1.3,0.6c1.1,0.3,1.9,0.7,2.4,1.2s0.7,1.1,0.7,1.8c0,0.8-0.3,1.4-0.9,1.9
		c-0.6,0.5-1.4,0.7-2.4,0.7c-0.7,0-1.4-0.1-1.9-0.4c-0.6-0.3-1-0.6-1.3-1.1s-0.5-1-0.5-1.6h1.9c0,1,0.6,1.5,1.8,1.5
		c0.4,0,0.8-0.1,1.1-0.3C288.5,725.9,288.6,725.6,288.6,725.3z"/>
	<path class="st8" d="M299.3,727.7h-1.9v-4h-3.7v4h-1.9v-9.2h1.9v3.8h3.7v-3.8h1.9V727.7z"/>
	<path class="st8" d="M306.3,725.8H303l-0.6,1.9h-2l3.4-9.2h1.8l3.5,9.2h-2L306.3,725.8z M303.5,724.3h2.3l-1.2-3.5L303.5,724.3z"/>
	<path class="st8" d="M313.2,724.4h-1.5v3.4h-1.9v-9.2h3.4c1.1,0,1.9,0.2,2.5,0.7c0.6,0.5,0.9,1.2,0.9,2.1c0,0.6-0.1,1.2-0.4,1.6
		c-0.3,0.4-0.7,0.8-1.2,1l2,3.8v0.1h-2L313.2,724.4z M311.7,722.8h1.5c0.5,0,0.9-0.1,1.1-0.4c0.3-0.2,0.4-0.6,0.4-1
		c0-0.4-0.1-0.8-0.4-1s-0.6-0.4-1.1-0.4h-1.5V722.8z"/>
	<path class="st8" d="M323.7,723.7H320v2.5h4.3v1.5h-6.2v-9.2h6.2v1.5H320v2.2h3.7L323.7,723.7L323.7,723.7z"/>
	<path class="st8" d="M330.6,724.5v3.3h-1.9v-9.2h3.6c0.7,0,1.3,0.1,1.8,0.4s0.9,0.6,1.2,1.1c0.3,0.5,0.4,1,0.4,1.6
		c0,0.9-0.3,1.6-0.9,2.1s-1.5,0.8-2.6,0.8L330.6,724.5L330.6,724.5z M330.6,722.9h1.7c0.5,0,0.9-0.1,1.1-0.4c0.3-0.2,0.4-0.6,0.4-1
		c0-0.5-0.1-0.8-0.4-1.1s-0.6-0.4-1.1-0.4h-1.8V722.9z"/>
	<path class="st8" d="M340.5,724.4H339v3.4h-1.9v-9.2h3.4c1.1,0,1.9,0.2,2.5,0.7c0.6,0.5,0.9,1.2,0.9,2.1c0,0.6-0.1,1.2-0.4,1.6
		c-0.3,0.4-0.7,0.8-1.2,1l2,3.8v0.1h-2L340.5,724.4z M339,722.8h1.5c0.5,0,0.9-0.1,1.1-0.4c0.3-0.2,0.4-0.6,0.4-1
		c0-0.4-0.1-0.8-0.4-1s-0.6-0.4-1.1-0.4H339V722.8z"/>
	<path class="st8" d="M347.4,727.7h-1.9v-9.2h1.9V727.7z"/>
	<path class="st8" d="M356.4,724.7c-0.1,1-0.4,1.8-1.1,2.3c-0.7,0.6-1.5,0.9-2.6,0.9c-1.2,0-2.1-0.4-2.8-1.2s-1-1.9-1-3.3v-0.6
		c0-0.9,0.2-1.7,0.5-2.3s0.8-1.2,1.3-1.6s1.3-0.5,2-0.5c1.1,0,1.9,0.3,2.6,0.9s1,1.4,1.1,2.4h-1.9c0-0.6-0.2-1-0.5-1.3
		c-0.3-0.3-0.7-0.4-1.3-0.4c-0.6,0-1.1,0.2-1.4,0.7c-0.3,0.5-0.5,1.2-0.5,2.1v0.7c0,1,0.1,1.7,0.5,2.2c0.3,0.5,0.8,0.7,1.4,0.7
		c0.6,0,1-0.1,1.3-0.4s0.5-0.7,0.5-1.3L356.4,724.7L356.4,724.7z"/>
	<path class="st8" d="M363.2,723.7h-3.7v2.5h4.3v1.5h-6.2v-9.2h6.2v1.5h-4.3v2.2h3.7L363.2,723.7L363.2,723.7z"/>
	<path class="st8" d="M373.4,725.8h-3.3l-0.6,1.9h-2l3.4-9.2h1.8l3.5,9.2h-2L373.4,725.8z M370.6,724.3h2.3l-1.2-3.5L370.6,724.3z"
		/>
	<path class="st8" d="M383.1,720h-2.8v7.7h-1.9V720h-2.8v-1.5h7.5L383.1,720L383.1,720z"/>
	<path class="st8" d="M392.6,723.7H389v2.5h4.3v1.5h-6.2v-9.2h6.2v1.5H389v2.2h3.7L392.6,723.7L392.6,723.7z"/>
	<path class="st8" d="M397.7,721.7l1.7-3.2h2.2l-2.7,4.6l2.8,4.7h-2.2l-1.8-3.2l-1.8,3.2h-2.2l2.8-4.7l-2.7-4.6h2.2L397.7,721.7z"/>
	<path class="st8" d="M404.7,727.7h-1.9v-9.2h1.9V727.7z"/>
	<path class="st8" d="M413.4,720h-2.8v7.7h-1.9V720h-2.8v-1.5h7.5L413.4,720L413.4,720z"/>
</g>
<g class="st9">
	<g>
		<path class="st8" d="M128.7,699.8v-2.5c-0.8-0.2-1.3-0.5-1.7-1s-0.5-1-0.5-1.6c0-0.6,0.2-1.2,0.6-1.6c0.4-0.4,0.9-0.7,1.6-0.8
			v-0.6h0.9v0.6c0.6,0.1,1.1,0.3,1.5,0.6s0.6,0.8,0.7,1.4l-1.5,0.2c-0.1-0.5-0.3-0.8-0.7-0.9v2.3c0.9,0.3,1.6,0.6,1.9,1
			c0.3,0.4,0.5,0.9,0.5,1.6c0,0.7-0.2,1.3-0.6,1.8c-0.4,0.5-1,0.8-1.8,0.9v1.1h-0.8v-1.1c-0.7-0.1-1.2-0.3-1.7-0.8s-0.7-1-0.8-1.8
			l1.5-0.2c0.1,0.3,0.2,0.6,0.4,0.8C128.3,699.5,128.5,699.7,128.7,699.8z M128.7,693.6c-0.2,0.1-0.4,0.2-0.5,0.4s-0.2,0.4-0.2,0.6
			c0,0.2,0.1,0.4,0.2,0.6c0.1,0.2,0.3,0.3,0.6,0.4V693.6z M129.6,699.9c0.3,0,0.5-0.2,0.7-0.4c0.2-0.2,0.3-0.5,0.3-0.8
			c0-0.3-0.1-0.5-0.2-0.7c-0.2-0.2-0.4-0.3-0.8-0.4C129.6,697.6,129.6,699.9,129.6,699.9z"/>
		<path class="st8" d="M133.1,698.8l1.6-0.2c0.1,0.4,0.2,0.7,0.4,0.9s0.5,0.3,0.8,0.3c0.3,0,0.6-0.1,0.9-0.4s0.4-0.7,0.4-1.3
			c0-0.5-0.1-0.9-0.4-1.2s-0.5-0.4-0.9-0.4c-0.5,0-0.9,0.2-1.3,0.6l-1.3-0.2l0.8-4.5h4.3v1.5h-3.1l-0.3,1.5c0.4-0.2,0.7-0.3,1.1-0.3
			c0.7,0,1.4,0.3,1.9,0.8c0.5,0.5,0.8,1.2,0.8,2.1c0,0.7-0.2,1.3-0.6,1.9c-0.6,0.8-1.3,1.1-2.3,1.1c-0.8,0-1.4-0.2-1.9-0.6
			S133.2,699.6,133.1,698.8z"/>
	</g>
	<g>
		<path class="st8" d="M104,629v-2.5c-0.8-0.2-1.3-0.5-1.7-1s-0.5-1-0.5-1.6c0-0.6,0.2-1.2,0.6-1.6c0.4-0.4,0.9-0.7,1.6-0.8V621h0.8
			v0.6c0.6,0.1,1.1,0.3,1.5,0.6s0.6,0.8,0.7,1.4l-1.5,0.2c-0.1-0.5-0.3-0.8-0.7-0.9v2.3c0.9,0.3,1.6,0.6,1.9,1s0.5,0.9,0.5,1.6
			c0,0.7-0.2,1.3-0.6,1.8s-1,0.8-1.8,0.9v1.1H104v-1.1c-0.7-0.1-1.2-0.3-1.7-0.8s-0.7-1-0.8-1.8l1.5-0.2c0.1,0.3,0.2,0.6,0.3,0.8
			S103.8,628.9,104,629z M104,622.8c-0.2,0.1-0.4,0.2-0.5,0.4s-0.2,0.4-0.2,0.6c0,0.2,0.1,0.4,0.2,0.6s0.3,0.3,0.6,0.4V622.8z
			 M104.9,629.1c0.3,0,0.5-0.2,0.7-0.4s0.3-0.5,0.3-0.8c0-0.3-0.1-0.5-0.2-0.7c-0.1-0.2-0.4-0.3-0.8-0.4V629.1z"/>
		<path class="st8" d="M112.5,630.3h-1.6v-6.2c-0.6,0.6-1.3,1-2.1,1.3v-1.5c0.4-0.1,0.9-0.4,1.4-0.8s0.8-0.8,1-1.4h1.3L112.5,630.3
			L112.5,630.3z"/>
		<path class="st8" d="M115.3,630.3v-8.6h2.6l1.6,5.9l1.5-5.9h2.6v8.6H122v-6.8l-1.7,6.8h-1.7l-1.7-6.8v6.8H115.3z"/>
	</g>
	<g>
		<path class="st8" d="M104,575v-2.5c-0.8-0.2-1.3-0.5-1.7-1s-0.5-1-0.5-1.6c0-0.6,0.2-1.2,0.6-1.6c0.4-0.4,0.9-0.7,1.6-0.8V567h0.8
			v0.6c0.6,0.1,1.1,0.3,1.5,0.6c0.4,0.3,0.6,0.8,0.7,1.4l-1.5,0.2c-0.1-0.5-0.3-0.8-0.7-0.9v2.3c0.9,0.3,1.6,0.6,1.9,1
			c0.3,0.4,0.5,0.9,0.5,1.6c0,0.7-0.2,1.3-0.6,1.8c-0.4,0.5-1,0.8-1.8,0.9v1.1H104v-1.1c-0.7-0.1-1.2-0.3-1.7-0.8
			c-0.4-0.4-0.7-1-0.8-1.8l1.5-0.2c0.1,0.3,0.2,0.6,0.3,0.8C103.6,574.8,103.8,574.9,104,575z M104,568.8c-0.2,0.1-0.4,0.2-0.5,0.4
			s-0.2,0.4-0.2,0.6c0,0.2,0.1,0.4,0.2,0.6s0.3,0.3,0.6,0.4V568.8z M104.9,575.1c0.3,0,0.5-0.2,0.7-0.4c0.2-0.2,0.3-0.5,0.3-0.8
			c0-0.3-0.1-0.5-0.2-0.7c-0.1-0.2-0.4-0.3-0.8-0.4V575.1z"/>
		<path class="st8" d="M113.9,574.7v1.5h-5.8c0.1-0.6,0.3-1.1,0.6-1.6c0.3-0.5,0.9-1.2,1.8-2.1c0.7-0.7,1.2-1.2,1.4-1.4
			c0.2-0.3,0.3-0.7,0.3-1c0-0.4-0.1-0.6-0.3-0.8c-0.2-0.2-0.5-0.3-0.8-0.3c-0.3,0-0.6,0.1-0.8,0.3c-0.2,0.2-0.3,0.5-0.3,1l-1.6-0.2
			c0.1-0.9,0.4-1.6,0.9-2s1.2-0.6,1.9-0.6c0.8,0,1.5,0.2,2,0.7c0.5,0.5,0.7,1,0.7,1.7c0,0.4-0.1,0.8-0.2,1.1
			c-0.1,0.4-0.4,0.7-0.7,1.1c-0.2,0.3-0.6,0.6-1.1,1.1c-0.5,0.5-0.8,0.8-1,1c-0.1,0.2-0.3,0.3-0.3,0.5L113.9,574.7L113.9,574.7z"/>
		<path class="st8" d="M115.3,576.3v-8.6h2.6l1.6,5.9l1.5-5.9h2.6v8.6H122v-6.8l-1.7,6.8h-1.7l-1.7-6.8v6.8H115.3z"/>
	</g>
	<g>
		<path class="st8" d="M104,519.9l-0.1-2.5c-0.8-0.2-1.3-0.5-1.7-0.9c-0.4-0.4-0.6-1-0.6-1.6c0-0.6,0.2-1.2,0.5-1.6s0.9-0.7,1.6-0.8
			l0-0.6l0.8,0l0,0.6c0.6,0,1.1,0.3,1.5,0.6c0.4,0.3,0.6,0.8,0.8,1.4l-1.5,0.3c-0.1-0.5-0.3-0.8-0.7-0.9l0.1,2.3
			c1,0.2,1.6,0.5,2,0.9c0.3,0.4,0.5,0.9,0.6,1.5c0,0.7-0.2,1.3-0.6,1.8s-1,0.8-1.8,1l0,1.1l-0.8,0l0-1.1c-0.7-0.1-1.2-0.3-1.7-0.7
			c-0.4-0.4-0.7-1-0.9-1.8l1.5-0.2c0.1,0.3,0.2,0.6,0.4,0.8C103.6,519.6,103.8,519.8,104,519.9z M103.7,513.8
			c-0.2,0.1-0.4,0.2-0.5,0.4c-0.1,0.2-0.2,0.4-0.2,0.6c0,0.2,0.1,0.4,0.2,0.6c0.1,0.2,0.3,0.3,0.6,0.4L103.7,513.8z M104.8,519.9
			c0.3-0.1,0.5-0.2,0.7-0.4c0.2-0.2,0.3-0.5,0.3-0.8c0-0.3-0.1-0.5-0.3-0.7c-0.2-0.2-0.4-0.3-0.8-0.4L104.8,519.9z"/>
		<path class="st8" d="M108.2,518.7l1.6-0.3c0.1,0.4,0.2,0.7,0.4,0.9c0.2,0.2,0.5,0.3,0.8,0.3c0.3,0,0.6-0.2,0.8-0.4
			c0.2-0.3,0.3-0.6,0.3-1.1c0-0.4-0.1-0.7-0.4-1c-0.2-0.2-0.5-0.3-0.8-0.3c-0.2,0-0.5,0.1-0.8,0.2l0.1-1.4c0.4,0,0.8-0.1,1-0.3
			c0.2-0.2,0.3-0.5,0.3-0.8c0-0.3-0.1-0.5-0.3-0.7c-0.2-0.2-0.4-0.2-0.7-0.2s-0.5,0.1-0.7,0.3c-0.2,0.2-0.3,0.5-0.3,0.9l-1.5-0.2
			c0.1-0.5,0.2-0.9,0.4-1.3c0.2-0.3,0.5-0.6,0.9-0.8c0.4-0.2,0.8-0.3,1.3-0.3c0.8,0,1.5,0.2,2,0.7c0.4,0.4,0.6,0.9,0.7,1.4
			c0,0.8-0.4,1.4-1.2,1.9c0.5,0.1,0.9,0.3,1.2,0.7c0.3,0.4,0.5,0.8,0.5,1.3c0,0.8-0.2,1.4-0.8,2s-1.2,0.8-2,0.9
			c-0.8,0-1.4-0.2-2-0.6S108.3,519.5,108.2,518.7z"/>
		<path class="st8" d="M115.3,520.8l-0.3-8.6l2.6-0.1l1.8,5.8l1.3-5.9l2.6-0.1l0.3,8.6l-1.6,0.1l-0.3-6.8l-1.5,6.8l-1.7,0.1
			l-1.9-6.7l0.3,6.8L115.3,520.8z"/>
	</g>
	<g>
		<path class="st8" d="M232.5,699.8v-2.5c-0.8-0.2-1.3-0.5-1.7-1s-0.5-1-0.5-1.6c0-0.6,0.2-1.2,0.6-1.6s0.9-0.7,1.6-0.8v-0.6h0.9
			v0.6c0.6,0.1,1.1,0.3,1.5,0.6s0.6,0.8,0.7,1.4l-1.5,0.2c-0.1-0.5-0.3-0.8-0.7-0.9v2.3c0.9,0.3,1.6,0.6,1.9,1s0.5,0.9,0.5,1.6
			c0,0.7-0.2,1.3-0.6,1.8s-1,0.8-1.8,0.9v1.1h-0.9v-1.1c-0.7-0.1-1.2-0.3-1.6-0.8s-0.7-1-0.8-1.8l1.5-0.2c0.1,0.3,0.2,0.6,0.4,0.8
			S232.3,699.7,232.5,699.8z M232.5,693.6c-0.2,0.1-0.4,0.2-0.6,0.4s-0.2,0.4-0.2,0.6c0,0.2,0.1,0.4,0.2,0.6s0.3,0.3,0.6,0.4V693.6z
			 M233.4,699.9c0.3,0,0.5-0.2,0.7-0.4s0.3-0.5,0.3-0.8c0-0.3-0.1-0.5-0.2-0.7s-0.4-0.3-0.8-0.4L233.4,699.9L233.4,699.9z"/>
		<path class="st8" d="M241.1,701h-1.6v-6.2c-0.6,0.6-1.3,1-2.1,1.3v-1.5c0.4-0.1,0.9-0.4,1.4-0.8s0.9-0.8,1-1.4h1.3L241.1,701
			L241.1,701z"/>
		<path class="st8" d="M246.3,692.4c0.8,0,1.5,0.3,1.9,0.9c0.6,0.7,0.8,1.9,0.8,3.5s-0.3,2.8-0.8,3.5c-0.5,0.6-1.1,0.9-1.9,0.9
			s-1.5-0.3-2-1s-0.8-1.8-0.8-3.4c0-1.6,0.3-2.8,0.8-3.5C244.8,692.7,245.5,692.4,246.3,692.4z M246.3,693.8c-0.2,0-0.4,0.1-0.5,0.2
			s-0.3,0.3-0.4,0.7c-0.1,0.4-0.2,1.1-0.2,2.2s0.1,1.7,0.1,2.1s0.2,0.6,0.4,0.8s0.3,0.2,0.5,0.2s0.4-0.1,0.5-0.2s0.3-0.3,0.4-0.7
			c0.1-0.4,0.2-1.1,0.2-2.1s-0.1-1.7-0.1-2.1s-0.2-0.6-0.4-0.8S246.5,693.8,246.3,693.8z"/>
	</g>
	<g>
		<path class="st8" d="M339.9,699.8v-2.5c-0.8-0.2-1.3-0.5-1.7-1s-0.5-1-0.5-1.6c0-0.6,0.2-1.2,0.6-1.6s0.9-0.7,1.6-0.8v-0.6h0.9
			v0.6c0.6,0.1,1.1,0.3,1.5,0.6s0.6,0.8,0.7,1.4l-1.5,0.2c-0.1-0.5-0.3-0.8-0.7-0.9v2.3c0.9,0.3,1.6,0.6,1.9,1s0.5,0.9,0.5,1.6
			c0,0.7-0.2,1.3-0.6,1.8s-1,0.8-1.8,0.9v1.1h-0.9v-1.1c-0.7-0.1-1.2-0.3-1.6-0.8s-0.7-1-0.8-1.8l1.5-0.2c0.1,0.3,0.2,0.6,0.4,0.8
			S339.7,699.7,339.9,699.8z M339.9,693.6c-0.2,0.1-0.4,0.2-0.5,0.4s-0.2,0.4-0.2,0.6c0,0.2,0.1,0.4,0.2,0.6s0.3,0.3,0.6,0.4
			L339.9,693.6L339.9,693.6z M340.8,699.9c0.3,0,0.5-0.2,0.7-0.4s0.3-0.5,0.3-0.8c0-0.3-0.1-0.5-0.2-0.7s-0.4-0.3-0.8-0.4
			L340.8,699.9L340.8,699.9z"/>
		<path class="st8" d="M348.4,701h-1.6v-6.2c-0.6,0.6-1.3,1-2.1,1.3v-1.5c0.4-0.1,0.9-0.4,1.4-0.8s0.9-0.8,1-1.4h1.3V701z"/>
		<path class="st8" d="M350.9,698.8l1.6-0.2c0,0.4,0.2,0.7,0.4,0.9s0.5,0.3,0.8,0.3c0.3,0,0.6-0.1,0.9-0.4s0.4-0.7,0.4-1.3
			c0-0.5-0.1-0.9-0.4-1.2s-0.5-0.4-0.9-0.4c-0.5,0-0.9,0.2-1.3,0.6l-1.3-0.2l0.8-4.5h4.4v1.5h-3.1l-0.3,1.5c0.4-0.2,0.7-0.3,1.1-0.3
			c0.7,0,1.4,0.3,1.9,0.8s0.8,1.2,0.8,2.1c0,0.7-0.2,1.3-0.6,1.9c-0.6,0.8-1.3,1.1-2.3,1.1c-0.8,0-1.4-0.2-1.9-0.6
			S351,699.6,350.9,698.8z"/>
	</g>
	<g>
		<path class="st8" d="M447.7,699.8v-2.5c-0.8-0.2-1.3-0.5-1.7-1s-0.5-1-0.5-1.6c0-0.6,0.2-1.2,0.6-1.6s0.9-0.7,1.6-0.8v-0.6h0.9
			v0.6c0.6,0.1,1.1,0.3,1.5,0.6s0.6,0.8,0.7,1.4l-1.5,0.2c-0.1-0.5-0.3-0.8-0.7-0.9v2.3c0.9,0.3,1.6,0.6,1.9,1s0.5,0.9,0.5,1.6
			c0,0.7-0.2,1.3-0.6,1.8s-1,0.8-1.8,0.9v1.1h-0.9v-1.1c-0.7-0.1-1.2-0.3-1.6-0.8s-0.7-1-0.8-1.8l1.5-0.2c0.1,0.3,0.2,0.6,0.4,0.8
			S447.5,699.7,447.7,699.8z M447.7,693.6c-0.2,0.1-0.4,0.2-0.5,0.4s-0.2,0.4-0.2,0.6c0,0.2,0.1,0.4,0.2,0.6s0.3,0.3,0.6,0.4
			L447.7,693.6L447.7,693.6z M448.5,699.9c0.3,0,0.5-0.2,0.7-0.4s0.3-0.5,0.3-0.8c0-0.3-0.1-0.5-0.2-0.7s-0.4-0.3-0.8-0.4
			L448.5,699.9L448.5,699.9z"/>
		<path class="st8" d="M457.6,699.5v1.5h-5.8c0.1-0.6,0.3-1.1,0.6-1.6s0.9-1.2,1.9-2.1c0.7-0.7,1.2-1.2,1.4-1.4
			c0.2-0.3,0.3-0.7,0.3-1c0-0.4-0.1-0.7-0.3-0.8s-0.5-0.3-0.8-0.3c-0.3,0-0.6,0.1-0.8,0.3s-0.3,0.5-0.4,1L452,695
			c0.1-0.9,0.4-1.6,0.9-2s1.2-0.6,1.9-0.6c0.9,0,1.5,0.2,2,0.7s0.7,1,0.7,1.7c0,0.4-0.1,0.8-0.2,1.1s-0.4,0.7-0.7,1.1
			c-0.2,0.3-0.6,0.6-1.1,1.1s-0.9,0.8-1,1s-0.3,0.3-0.3,0.5L457.6,699.5L457.6,699.5z"/>
		<path class="st8" d="M461.5,692.4c0.8,0,1.5,0.3,2,0.9c0.6,0.7,0.8,1.9,0.8,3.5s-0.3,2.8-0.8,3.5c-0.5,0.6-1.1,0.9-2,0.9
			c-0.8,0-1.5-0.3-2-1s-0.8-1.8-0.8-3.4c0-1.6,0.3-2.8,0.8-3.5C460,692.7,460.6,692.4,461.5,692.4z M461.5,693.8
			c-0.2,0-0.4,0.1-0.5,0.2s-0.3,0.3-0.4,0.7c-0.1,0.4-0.2,1.1-0.2,2.2s0,1.7,0.1,2.1s0.2,0.6,0.4,0.8s0.3,0.2,0.5,0.2
			s0.4-0.1,0.5-0.2s0.3-0.3,0.4-0.7c0.1-0.4,0.2-1.1,0.2-2.1s0-1.7-0.1-2.1s-0.2-0.6-0.4-0.8S461.7,693.8,461.5,693.8z"/>
	</g>
	<g>
		<path class="st8" d="M556.1,699.8v-2.5c-0.8-0.2-1.3-0.5-1.7-1c-0.4-0.4-0.5-1-0.5-1.6c0-0.6,0.2-1.2,0.6-1.6s0.9-0.7,1.6-0.8
			v-0.6h0.9v0.6c0.6,0.1,1.1,0.3,1.5,0.6c0.4,0.4,0.6,0.8,0.7,1.4l-1.5,0.2c-0.1-0.5-0.3-0.8-0.7-0.9v2.3c0.9,0.3,1.6,0.6,1.9,1
			s0.5,0.9,0.5,1.6c0,0.7-0.2,1.3-0.6,1.8c-0.4,0.5-1,0.8-1.8,0.9v1.1h-0.9v-1.1c-0.7-0.1-1.2-0.3-1.6-0.8s-0.7-1-0.8-1.8l1.5-0.2
			c0.1,0.3,0.2,0.6,0.4,0.8C555.7,699.5,555.9,699.7,556.1,699.8z M556.1,693.6c-0.2,0.1-0.4,0.2-0.5,0.4c-0.1,0.2-0.2,0.4-0.2,0.6
			c0,0.2,0.1,0.4,0.2,0.6s0.3,0.3,0.6,0.4V693.6L556.1,693.6z M556.9,699.9c0.3,0,0.5-0.2,0.7-0.4s0.3-0.5,0.3-0.8
			c0-0.3-0.1-0.5-0.2-0.7s-0.4-0.3-0.8-0.4V699.9L556.9,699.9z"/>
		<path class="st8" d="M566,699.5v1.5h-5.8c0.1-0.6,0.3-1.1,0.6-1.6s0.9-1.2,1.9-2.1c0.7-0.7,1.2-1.2,1.4-1.4c0.2-0.3,0.3-0.7,0.3-1
			c0-0.4-0.1-0.7-0.3-0.8c-0.2-0.2-0.5-0.3-0.8-0.3c-0.3,0-0.6,0.1-0.8,0.3s-0.3,0.5-0.3,1l-1.6-0.2c0.1-0.9,0.4-1.6,0.9-2
			s1.2-0.6,1.9-0.6c0.9,0,1.5,0.2,2,0.7s0.7,1,0.7,1.7c0,0.4-0.1,0.8-0.2,1.1c-0.1,0.3-0.4,0.7-0.7,1.1c-0.2,0.3-0.6,0.6-1.1,1.1
			c-0.5,0.5-0.8,0.8-1,1c-0.1,0.2-0.3,0.3-0.3,0.5L566,699.5L566,699.5z"/>
		<path class="st8" d="M567.1,698.8l1.6-0.2c0,0.4,0.2,0.7,0.4,0.9c0.2,0.2,0.5,0.3,0.8,0.3c0.3,0,0.6-0.1,0.9-0.4s0.4-0.7,0.4-1.3
			c0-0.5-0.1-0.9-0.3-1.2c-0.2-0.3-0.5-0.4-0.9-0.4c-0.5,0-0.9,0.2-1.3,0.6l-1.3-0.2l0.8-4.5h4.3v1.5h-3.1l-0.3,1.5
			c0.4-0.2,0.7-0.3,1.1-0.3c0.7,0,1.4,0.3,1.9,0.8c0.5,0.5,0.8,1.2,0.8,2.1c0,0.7-0.2,1.3-0.6,1.9c-0.6,0.8-1.3,1.1-2.3,1.1
			c-0.8,0-1.4-0.2-1.9-0.6S567.2,699.6,567.1,698.8z"/>
	</g>
</g>
<g>
	<path class="st10" d="M223,469c0-0.5-0.2-1-0.6-1.3c-0.4-0.3-1.1-0.6-2.1-0.9c-1-0.3-1.8-0.6-2.4-1c-1.6-0.9-2.4-2-2.4-3.5
		c0-0.8,0.2-1.5,0.6-2.1c0.4-0.6,1.1-1.1,1.9-1.4c0.8-0.3,1.7-0.5,2.7-0.5c1,0,1.9,0.2,2.7,0.5c0.8,0.4,1.4,0.9,1.9,1.6
		c0.4,0.7,0.7,1.4,0.7,2.3H223c0-0.6-0.2-1.2-0.6-1.5s-1-0.5-1.7-0.5c-0.7,0-1.3,0.1-1.7,0.5s-0.6,0.7-0.6,1.2
		c0,0.5,0.2,0.9,0.7,1.2s1.1,0.6,2.1,0.9c1.7,0.5,2.9,1.1,3.6,1.9s1.1,1.7,1.1,2.8c0,1.2-0.5,2.2-1.4,2.9c-0.9,0.7-2.2,1-3.8,1
		c-1.1,0-2.1-0.2-3-0.6s-1.6-1-2.1-1.6c-0.5-0.7-0.7-1.5-0.7-2.4h2.9c0,1.6,0.9,2.4,2.8,2.4c0.7,0,1.2-0.1,1.6-0.4
		S223,469.5,223,469z"/>
	<path class="st10" d="M230.5,463.3c0.8-0.9,1.7-1.4,2.8-1.4c2.3,0,3.4,1.3,3.5,4v6.8H234v-6.7c0-0.6-0.1-1-0.4-1.3
		s-0.7-0.4-1.3-0.4c-0.8,0-1.4,0.3-1.8,1v7.5h-2.8v-15h2.8V463.3z"/>
	<path class="st10" d="M245.1,472.7c-0.1-0.3-0.2-0.6-0.3-1c-0.7,0.8-1.6,1.1-2.7,1.1c-1,0-1.9-0.3-2.6-0.9c-0.7-0.6-1-1.4-1-2.3
		c0-1.1,0.4-2,1.3-2.6c0.8-0.6,2-0.9,3.6-0.9h1.3v-0.6c0-0.5-0.1-0.9-0.4-1.2s-0.6-0.4-1.2-0.4c-0.5,0-0.9,0.1-1.1,0.3
		c-0.3,0.2-0.4,0.5-0.4,0.9h-2.8c0-0.6,0.2-1.2,0.6-1.7c0.4-0.5,0.9-0.9,1.6-1.2c0.7-0.3,1.5-0.4,2.3-0.4c1.3,0,2.3,0.3,3.1,1
		s1.1,1.6,1.1,2.8v4.6c0,1,0.1,1.8,0.4,2.3v0.2L245.1,472.7L245.1,472.7z M242.7,470.8c0.4,0,0.8-0.1,1.1-0.3s0.6-0.4,0.8-0.8v-1.8
		h-1.1c-1.4,0-2.2,0.5-2.3,1.5l0,0.2c0,0.4,0.1,0.6,0.4,0.9C242,470.7,242.3,470.8,242.7,470.8z"/>
	<path class="st10" d="M255.6,464.8c-0.4,0-0.7-0.1-1-0.1c-1.1,0-1.8,0.4-2.1,1.1v6.9h-2.8v-10.6h2.7l0.1,1.3c0.6-1,1.4-1.5,2.4-1.5
		c0.3,0,0.6,0,0.9,0.1L255.6,464.8z"/>
	<path class="st10" d="M261.8,472.9c-1.5,0-2.8-0.5-3.8-1.4c-1-1-1.5-2.2-1.5-3.8v-0.3c0-1.1,0.2-2,0.6-2.9s1-1.5,1.7-1.9
		c0.8-0.5,1.6-0.7,2.6-0.7c1.5,0,2.6,0.5,3.4,1.4c0.8,0.9,1.3,2.2,1.3,3.9v1.1h-6.7c0.1,0.7,0.4,1.2,0.8,1.7c0.5,0.4,1,0.6,1.7,0.6
		c1.1,0,1.9-0.4,2.5-1.2l1.4,1.5c-0.4,0.6-1,1.1-1.7,1.4C263.5,472.8,262.7,472.9,261.8,472.9z M261.5,464.3c-0.6,0-1,0.2-1.4,0.6
		s-0.6,0.9-0.7,1.6h3.9v-0.2c0-0.6-0.2-1.1-0.5-1.5C262.6,464.4,262.1,464.3,261.5,464.3z"/>
	<path class="st10" d="M270.5,463.3c0.8-0.9,1.7-1.4,2.8-1.4c2.3,0,3.4,1.3,3.5,4v6.8H274v-6.7c0-0.6-0.1-1-0.4-1.3
		c-0.3-0.3-0.7-0.4-1.3-0.4c-0.8,0-1.4,0.3-1.8,1v7.5h-2.8v-15h2.8V463.3z"/>
	<path class="st10" d="M278.5,467.4c0-1,0.2-2,0.6-2.8s1-1.5,1.7-1.9s1.6-0.7,2.6-0.7c1.4,0,2.6,0.4,3.5,1.3
		c0.9,0.9,1.4,2.1,1.5,3.5l0,0.7c0,1.6-0.5,2.9-1.4,3.9c-0.9,1-2.1,1.5-3.6,1.5c-1.5,0-2.7-0.5-3.6-1.5c-0.9-1-1.4-2.3-1.4-4V467.4
		L278.5,467.4z M281.3,467.6c0,1,0.2,1.8,0.6,2.3s0.9,0.8,1.6,0.8c0.7,0,1.2-0.3,1.6-0.8s0.6-1.4,0.6-2.5c0-1-0.2-1.8-0.6-2.3
		c-0.4-0.5-0.9-0.8-1.6-0.8c-0.7,0-1.2,0.3-1.6,0.8C281.5,465.6,281.3,466.4,281.3,467.6z"/>
	<path class="st10" d="M293.3,472.7h-2.8v-15h2.8V472.7z"/>
	<path class="st10" d="M295.1,467.4c0-1.6,0.4-3,1.1-3.9c0.7-1,1.8-1.5,3-1.5c1,0,1.9,0.4,2.5,1.1v-5.4h2.8v15h-2.6l-0.1-1.1
		c-0.7,0.9-1.6,1.3-2.7,1.3c-1.2,0-2.2-0.5-3-1.5S295.1,469.1,295.1,467.4z M298,467.6c0,1,0.2,1.8,0.5,2.3s0.9,0.8,1.5,0.8
		c0.9,0,1.5-0.4,1.9-1.1v-4.2c-0.4-0.7-1-1.1-1.8-1.1C298.6,464.3,298,465.4,298,467.6z"/>
	<path class="st10" d="M311.7,472.9c-1.6,0-2.8-0.5-3.8-1.4c-1-1-1.5-2.2-1.5-3.8v-0.3c0-1.1,0.2-2,0.6-2.9c0.4-0.8,1-1.5,1.7-1.9
		c0.8-0.5,1.6-0.7,2.6-0.7c1.4,0,2.6,0.5,3.4,1.4c0.8,0.9,1.3,2.2,1.3,3.9v1.1h-6.7c0.1,0.7,0.4,1.2,0.8,1.7c0.5,0.4,1,0.6,1.7,0.6
		c1.1,0,1.9-0.4,2.6-1.2l1.4,1.5c-0.4,0.6-1,1.1-1.7,1.4C313.4,472.8,312.6,472.9,311.7,472.9z M311.4,464.3c-0.6,0-1,0.2-1.4,0.6
		s-0.6,0.9-0.7,1.6h3.9v-0.2c0-0.6-0.2-1.1-0.5-1.5C312.4,464.4,312,464.3,311.4,464.3z"/>
	<path class="st10" d="M323.6,464.8c-0.4,0-0.7-0.1-1-0.1c-1.1,0-1.8,0.4-2.1,1.1v6.9h-2.8v-10.6h2.7l0.1,1.3c0.6-1,1.4-1.5,2.4-1.5
		c0.3,0,0.6,0,0.9,0.1L323.6,464.8z"/>
	<path class="st10" d="M332.9,472.7h-2.8v-15h2.8V472.7z"/>
	<path class="st10" d="M335.2,459.4c0-0.4,0.1-0.8,0.4-1s0.7-0.4,1.2-0.4c0.5,0,0.9,0.1,1.1,0.4s0.4,0.6,0.4,1c0,0.4-0.1,0.8-0.4,1
		s-0.7,0.4-1.1,0.4s-0.9-0.1-1.1-0.4S335.2,459.9,335.2,459.4z M338.2,472.7h-2.8v-10.6h2.8V472.7z"/>
	<path class="st10" d="M340.1,467.4c0-1.7,0.4-3,1.1-3.9c0.7-1,1.8-1.5,3-1.5c1.1,0,2,0.4,2.7,1.3l0.2-1.1h2.5v14.6h-2.8v-5
		c-0.6,0.7-1.5,1.1-2.6,1.1c-1.3,0-2.3-0.5-3-1.5S340.1,469.1,340.1,467.4z M342.9,467.6c0,1,0.2,1.8,0.5,2.3s0.9,0.8,1.5,0.8
		c0.9,0,1.5-0.4,1.8-1v-4.4c-0.4-0.7-1-1-1.8-1c-0.6,0-1.2,0.3-1.5,0.8C343.1,465.6,342.9,466.4,342.9,467.6z"/>
	<path class="st10" d="M358.2,471.7c-0.7,0.9-1.7,1.3-2.9,1.3c-1.1,0-2-0.3-2.6-1c-0.6-0.6-0.9-1.6-0.9-2.9v-6.9h2.8v6.8
		c0,1.1,0.5,1.6,1.5,1.6c1,0,1.6-0.3,2-1v-7.5h2.8v10.6h-2.7L358.2,471.7z"/>
	<path class="st10" d="M363,459.4c0-0.4,0.1-0.8,0.4-1s0.7-0.4,1.2-0.4c0.5,0,0.9,0.1,1.1,0.4s0.4,0.6,0.4,1c0,0.4-0.1,0.8-0.4,1
		s-0.7,0.4-1.1,0.4s-0.9-0.1-1.1-0.4S363,459.9,363,459.4z M366,472.7h-2.8v-10.6h2.8V472.7z"/>
	<path class="st10" d="M367.9,467.4c0-1.6,0.4-3,1.1-3.9s1.8-1.5,3-1.5c1,0,1.9,0.4,2.5,1.1v-5.4h2.8v15h-2.5l-0.1-1.1
		c-0.7,0.9-1.6,1.3-2.7,1.3c-1.2,0-2.2-0.5-3-1.5C368.3,470.5,367.9,469.1,367.9,467.4z M370.7,467.6c0,1,0.2,1.8,0.5,2.3
		s0.9,0.8,1.5,0.8c0.9,0,1.5-0.4,1.9-1.1v-4.2c-0.4-0.7-1-1.1-1.8-1.1C371.4,464.3,370.7,465.4,370.7,467.6z"/>
	<path class="st10" d="M379.6,459.4c0-0.4,0.1-0.8,0.4-1s0.7-0.4,1.2-0.4c0.5,0,0.9,0.1,1.1,0.4c0.3,0.3,0.4,0.6,0.4,1
		c0,0.4-0.1,0.8-0.4,1c-0.3,0.3-0.7,0.4-1.1,0.4c-0.5,0-0.9-0.1-1.1-0.4C379.7,460.2,379.6,459.9,379.6,459.4z M382.6,472.7h-2.8
		v-10.6h2.8V472.7z"/>
	<path class="st10" d="M388.3,459.6v2.6h1.8v2.1h-1.8v5.3c0,0.4,0.1,0.7,0.2,0.8c0.1,0.2,0.4,0.3,0.9,0.3c0.3,0,0.6,0,0.8-0.1v2.1
		c-0.5,0.2-1.1,0.3-1.7,0.3c-2,0-3-1-3-3v-5.7h-1.5v-2.1h1.5v-2.6L388.3,459.6L388.3,459.6z"/>
	<path class="st10" d="M395.6,468.8l2-6.6h3l-4.3,12.2l-0.2,0.6c-0.6,1.4-1.7,2.1-3.1,2.1c-0.4,0-0.8-0.1-1.3-0.2v-2.1l0.4,0
		c0.5,0,0.9-0.1,1.2-0.2c0.3-0.2,0.5-0.4,0.6-0.8l0.3-0.9l-3.7-10.6h3L395.6,468.8z"/>
	<path class="st10" d="M411.5,472.9c-1.5,0-2.8-0.5-3.8-1.4c-1-1-1.5-2.2-1.5-3.8v-0.3c0-1.1,0.2-2,0.6-2.9s1-1.5,1.7-1.9
		c0.8-0.5,1.6-0.7,2.6-0.7c1.5,0,2.6,0.5,3.4,1.4c0.8,0.9,1.3,2.2,1.3,3.9v1.1h-6.7c0.1,0.7,0.4,1.2,0.8,1.7c0.5,0.4,1,0.6,1.7,0.6
		c1.1,0,1.9-0.4,2.5-1.2l1.4,1.5c-0.4,0.6-1,1.1-1.7,1.4C413.2,472.8,412.4,472.9,411.5,472.9z M411.2,464.3c-0.6,0-1,0.2-1.4,0.6
		c-0.4,0.4-0.6,0.9-0.7,1.6h3.9v-0.2c0-0.6-0.2-1.1-0.5-1.5C412.3,464.4,411.8,464.3,411.2,464.3z"/>
	<path class="st10" d="M421.5,465.3l1.8-3.1h3l-3,5.2l3.1,5.4h-3l-1.9-3.3l-1.9,3.3h-3l3.1-5.4l-3-5.2h3L421.5,465.3z"/>
	<path class="st10" d="M433.8,472.7c-0.1-0.3-0.2-0.6-0.3-1c-0.7,0.8-1.6,1.1-2.7,1.1c-1,0-1.9-0.3-2.6-0.9s-1-1.4-1-2.3
		c0-1.1,0.4-2,1.2-2.6c0.8-0.6,2-0.9,3.6-0.9h1.3v-0.6c0-0.5-0.1-0.9-0.4-1.2s-0.6-0.4-1.2-0.4c-0.5,0-0.9,0.1-1.1,0.3
		s-0.4,0.5-0.4,0.9h-2.8c0-0.6,0.2-1.2,0.6-1.7c0.4-0.5,0.9-0.9,1.6-1.2c0.7-0.3,1.5-0.4,2.3-0.4c1.3,0,2.3,0.3,3.1,1
		c0.8,0.6,1.1,1.6,1.1,2.8v4.6c0,1,0.1,1.8,0.4,2.3v0.2L433.8,472.7L433.8,472.7z M431.5,470.8c0.4,0,0.8-0.1,1.1-0.3
		s0.6-0.4,0.8-0.8v-1.8h-1c-1.4,0-2.2,0.5-2.3,1.5l0,0.2c0,0.4,0.1,0.6,0.4,0.9C430.7,470.7,431,470.8,431.5,470.8z"/>
	<path class="st10" d="M441,462.2l0.1,1.2c0.8-0.9,1.8-1.4,3-1.4c1.4,0,2.3,0.5,2.8,1.6c0.7-1.1,1.8-1.6,3.2-1.6c1.1,0,2,0.3,2.6,1
		s0.8,1.7,0.8,3v6.8h-2.8V466c0-0.6-0.1-1-0.4-1.3c-0.2-0.3-0.6-0.4-1.2-0.4c-0.9,0-1.4,0.4-1.8,1.2l0,7.3h-2.8V466
		c0-0.6-0.1-1-0.4-1.3c-0.2-0.3-0.6-0.4-1.2-0.4c-0.8,0-1.4,0.3-1.7,1v7.5h-2.8v-10.6L441,462.2L441,462.2z"/>
	<path class="st10" d="M465.2,467.6c0,1.6-0.4,2.9-1.1,3.9s-1.7,1.5-3,1.5c-1.1,0-1.9-0.4-2.6-1.1v5h-2.8v-14.6h2.6l0.1,1
		c0.7-0.8,1.6-1.2,2.7-1.2c1.3,0,2.3,0.5,3,1.5c0.7,1,1.1,2.3,1.1,4L465.2,467.6L465.2,467.6z M462.4,467.4c0-1-0.2-1.7-0.5-2.3
		c-0.4-0.5-0.9-0.8-1.5-0.8c-0.9,0-1.5,0.3-1.8,1v4.3c0.3,0.7,1,1,1.9,1C461.7,470.7,462.4,469.6,462.4,467.4z"/>
	<path class="st10" d="M469.9,472.7h-2.8v-15h2.8V472.7z"/>
	<path class="st10" d="M477.1,472.9c-1.5,0-2.8-0.5-3.8-1.4c-1-1-1.5-2.2-1.5-3.8v-0.3c0-1.1,0.2-2,0.6-2.9s1-1.5,1.7-1.9
		c0.8-0.5,1.6-0.7,2.6-0.7c1.5,0,2.6,0.5,3.4,1.4c0.8,0.9,1.3,2.2,1.3,3.9v1.1h-6.7c0.1,0.7,0.4,1.2,0.8,1.7c0.5,0.4,1,0.6,1.7,0.6
		c1.1,0,1.9-0.4,2.5-1.2l1.4,1.5c-0.4,0.6-1,1.1-1.7,1.4C478.8,472.8,478,472.9,477.1,472.9z M476.8,464.3c-0.6,0-1,0.2-1.4,0.6
		c-0.4,0.4-0.6,0.9-0.7,1.6h3.9v-0.2c0-0.6-0.2-1.1-0.5-1.5C477.9,464.4,477.4,464.3,476.8,464.3z"/>
</g>
<g class="st9">
	<path class="st10" d="M294,488.8h-4.8v5h-1.5v-11.4h7.1v1.2h-5.6v3.9h4.8V488.8z"/>
	<path class="st10" d="M296.3,483.2c0-0.2,0.1-0.4,0.2-0.6c0.1-0.2,0.4-0.2,0.6-0.2s0.5,0.1,0.6,0.2s0.2,0.4,0.2,0.6
		s-0.1,0.4-0.2,0.6s-0.4,0.2-0.6,0.2s-0.5-0.1-0.6-0.2C296.4,483.6,296.3,483.4,296.3,483.2z M297.9,493.9h-1.4v-8.5h1.4V493.9z"/>
	<path class="st10" d="M301.6,485.4l0,1.1c0.6-0.8,1.5-1.2,2.5-1.2c1.8,0,2.7,1,2.7,3v5.6h-1.5v-5.6c0-0.6-0.1-1.1-0.4-1.4
		c-0.3-0.3-0.7-0.4-1.3-0.4c-0.5,0-0.9,0.1-1.2,0.4s-0.6,0.6-0.8,1v6h-1.5v-8.5L301.6,485.4L301.6,485.4z"/>
	<path class="st10" d="M314.2,493.9c-0.1-0.2-0.1-0.5-0.2-0.9c-0.7,0.7-1.5,1-2.4,1c-0.8,0-1.5-0.2-2-0.7s-0.8-1.1-0.8-1.8
		c0-0.9,0.3-1.6,1-2c0.7-0.5,1.6-0.7,2.8-0.7h1.4v-0.7c0-0.5-0.1-0.9-0.4-1.2c-0.3-0.3-0.8-0.5-1.3-0.5c-0.5,0-1,0.1-1.3,0.4
		s-0.5,0.6-0.5,1h-1.5c0-0.4,0.1-0.8,0.5-1.2c0.3-0.4,0.7-0.7,1.2-0.9c0.5-0.2,1.1-0.3,1.7-0.3c1,0,1.7,0.2,2.3,0.7
		c0.6,0.5,0.8,1.2,0.9,2v3.9c0,0.8,0.1,1.4,0.3,1.9v0.1L314.2,493.9L314.2,493.9z M311.8,492.8c0.4,0,0.9-0.1,1.3-0.4
		c0.4-0.2,0.7-0.5,0.9-0.9v-1.7h-1.1c-1.8,0-2.7,0.5-2.7,1.5c0,0.5,0.1,0.8,0.5,1.1C311,492.6,311.4,492.8,311.8,492.8z"/>
	<path class="st10" d="M319.1,485.4l0,1.1c0.6-0.8,1.5-1.2,2.5-1.2c1.8,0,2.7,1,2.7,3v5.6h-1.5v-5.6c0-0.6-0.1-1.1-0.4-1.4
		c-0.3-0.3-0.7-0.4-1.3-0.4c-0.5,0-0.9,0.1-1.2,0.4c-0.4,0.3-0.6,0.6-0.8,1v6h-1.4v-8.5L319.1,485.4L319.1,485.4z"/>
	<path class="st10" d="M329.9,492.8c0.5,0,1-0.2,1.4-0.5c0.4-0.3,0.6-0.7,0.6-1.2h1.4c0,0.5-0.2,1-0.5,1.4c-0.3,0.4-0.7,0.8-1.2,1
		c-0.5,0.3-1.1,0.4-1.6,0.4c-1.1,0-2.1-0.4-2.8-1.1s-1-1.8-1-3.1v-0.2c0-0.8,0.1-1.5,0.5-2.2c0.3-0.6,0.7-1.1,1.3-1.5
		c0.6-0.4,1.2-0.5,2-0.5c1,0,1.7,0.3,2.4,0.9c0.6,0.6,1,1.3,1,2.2h-1.4c0-0.5-0.3-1-0.6-1.4s-0.8-0.5-1.4-0.5
		c-0.7,0-1.3,0.3-1.7,0.8c-0.4,0.5-0.6,1.3-0.6,2.3v0.3c0,1,0.2,1.7,0.6,2.3C328.6,492.6,329.2,492.8,329.9,492.8z"/>
	<path class="st10" d="M334.9,483.2c0-0.2,0.1-0.4,0.2-0.6c0.1-0.2,0.4-0.2,0.6-0.2s0.5,0.1,0.6,0.2c0.1,0.2,0.2,0.4,0.2,0.6
		s-0.1,0.4-0.2,0.6s-0.4,0.2-0.6,0.2s-0.5-0.1-0.6-0.2C335,483.6,334.9,483.4,334.9,483.2z M336.5,493.9H335v-8.5h1.5V493.9z"/>
	<path class="st10" d="M340.2,485.4l0,1.1c0.6-0.8,1.5-1.2,2.5-1.2c1.8,0,2.7,1,2.7,3v5.6H344v-5.6c0-0.6-0.1-1.1-0.4-1.4
		c-0.3-0.3-0.7-0.4-1.3-0.4c-0.5,0-0.9,0.1-1.2,0.4s-0.6,0.6-0.8,1v6h-1.5v-8.5L340.2,485.4L340.2,485.4z"/>
	<path class="st10" d="M347.3,489.6c0-1.3,0.3-2.4,0.9-3.1c0.6-0.8,1.4-1.2,2.4-1.2c1,0,1.8,0.4,2.4,1.1l0.1-0.9h1.3v8.3
		c0,1.1-0.3,2-1,2.6s-1.5,1-2.6,1c-0.6,0-1.2-0.1-1.8-0.4c-0.6-0.3-1-0.6-1.3-1.1l0.8-0.9c0.6,0.8,1.4,1.1,2.3,1.1
		c0.7,0,1.3-0.2,1.6-0.6c0.4-0.4,0.6-1,0.6-1.7V493c-0.6,0.7-1.4,1-2.4,1c-1,0-1.8-0.4-2.4-1.2C347.6,492,347.3,491,347.3,489.6z
		 M348.7,489.7c0,1,0.2,1.7,0.6,2.3c0.4,0.5,0.9,0.8,1.6,0.8c0.9,0,1.6-0.4,2-1.2v-3.9c-0.4-0.8-1.1-1.2-2-1.2
		c-0.7,0-1.3,0.3-1.6,0.8C348.9,487.9,348.7,488.7,348.7,489.7z"/>
	<path class="st10" d="M363.4,491.9l2.1-6.5h1.5l-3,8.5h-1.1l-3.1-8.5h1.5L363.4,491.9z"/>
	<path class="st10" d="M373.2,491.6c0-0.4-0.1-0.7-0.4-0.9s-0.8-0.4-1.5-0.6s-1.3-0.3-1.7-0.6s-0.8-0.5-1-0.8
		c-0.2-0.3-0.3-0.7-0.3-1.1c0-0.7,0.3-1.3,0.9-1.8s1.3-0.7,2.3-0.7c1,0,1.7,0.3,2.3,0.7c0.6,0.5,0.9,1.1,0.9,1.9h-1.5
		c0-0.4-0.2-0.7-0.5-1c-0.3-0.3-0.8-0.4-1.3-0.4c-0.5,0-0.9,0.1-1.2,0.3c-0.3,0.2-0.5,0.5-0.5,0.9c0,0.4,0.1,0.6,0.4,0.8
		c0.3,0.2,0.8,0.4,1.5,0.5c0.7,0.2,1.3,0.4,1.8,0.6c0.5,0.2,0.8,0.5,1,0.8s0.3,0.7,0.3,1.1c0,0.8-0.3,1.4-0.9,1.8
		c-0.6,0.5-1.4,0.7-2.4,0.7c-0.7,0-1.3-0.1-1.8-0.4s-0.9-0.6-1.2-1s-0.4-0.9-0.4-1.4h1.5c0,0.5,0.2,0.9,0.6,1.1s0.8,0.4,1.4,0.4
		c0.5,0,1-0.1,1.3-0.3C373.1,492.3,373.2,492,373.2,491.6z"/>
	<path class="st10" d="M384.1,488.8c-1.3-0.4-2.2-0.8-2.8-1.4s-0.9-1.2-0.9-2c0-0.9,0.4-1.6,1.1-2.2c0.7-0.6,1.6-0.9,2.8-0.9
		c0.8,0,1.5,0.1,2.1,0.5c0.6,0.3,1.1,0.7,1.4,1.3s0.5,1.1,0.5,1.7h-1.5c0-0.7-0.2-1.2-0.7-1.6s-1-0.6-1.9-0.6
		c-0.7,0-1.3,0.2-1.7,0.5s-0.6,0.8-0.6,1.4c0,0.5,0.2,0.9,0.6,1.2c0.4,0.3,1.1,0.6,2,0.9c1,0.3,1.7,0.6,2.2,0.9
		c0.5,0.3,0.9,0.7,1.2,1.1s0.4,0.9,0.4,1.5c0,0.9-0.4,1.7-1.1,2.2s-1.7,0.8-2.9,0.8c-0.8,0-1.5-0.1-2.2-0.5
		c-0.7-0.3-1.2-0.7-1.6-1.2c-0.4-0.5-0.5-1.1-0.5-1.8h1.5c0,0.7,0.3,1.2,0.8,1.6s1.2,0.6,2,0.6c0.8,0,1.4-0.2,1.8-0.5
		s0.6-0.8,0.6-1.3s-0.2-1-0.6-1.3S385.1,489.1,384.1,488.8z"/>
	<path class="st10" d="M395.2,493.9c-0.1-0.2-0.1-0.5-0.2-0.9c-0.7,0.7-1.5,1-2.4,1c-0.8,0-1.5-0.2-2-0.7s-0.8-1.1-0.8-1.8
		c0-0.9,0.3-1.6,1-2s1.6-0.7,2.8-0.7h1.4v-0.7c0-0.5-0.1-0.9-0.5-1.2c-0.3-0.3-0.8-0.5-1.3-0.5c-0.5,0-1,0.1-1.3,0.4
		c-0.4,0.3-0.5,0.6-0.5,1H390c0-0.4,0.1-0.8,0.5-1.2c0.3-0.4,0.7-0.7,1.2-0.9c0.5-0.2,1.1-0.3,1.7-0.3c1,0,1.7,0.2,2.3,0.7
		c0.5,0.5,0.8,1.2,0.9,2v3.9c0,0.8,0.1,1.4,0.3,1.9v0.1L395.2,493.9L395.2,493.9z M392.8,492.8c0.5,0,0.9-0.1,1.3-0.4
		s0.7-0.5,0.9-0.9v-1.7h-1.1c-1.8,0-2.7,0.5-2.7,1.5c0,0.5,0.1,0.8,0.5,1.1C392,492.6,392.4,492.8,392.8,492.8z"/>
	<path class="st10" d="M400.3,493.9h-1.5v-12h1.5V493.9z"/>
	<path class="st10" d="M406.1,494c-1.1,0-2.1-0.4-2.8-1.1s-1.1-1.8-1.1-3v-0.3c0-0.8,0.2-1.6,0.5-2.3s0.8-1.2,1.3-1.5
		c0.6-0.4,1.2-0.6,1.9-0.6c1.1,0,2,0.4,2.6,1.1c0.6,0.7,0.9,1.8,0.9,3.1v0.6h-5.7c0,0.8,0.3,1.5,0.7,2c0.5,0.5,1.1,0.8,1.8,0.8
		c0.5,0,0.9-0.1,1.3-0.3c0.4-0.2,0.7-0.5,0.9-0.8l0.9,0.7C408.6,493.5,407.5,494,406.1,494z M405.9,486.5c-0.6,0-1.1,0.2-1.5,0.6
		c-0.4,0.4-0.6,1-0.7,1.8h4.2v-0.1c0-0.7-0.2-1.3-0.6-1.7C407,486.7,406.5,486.5,405.9,486.5z"/>
</g>
</svg>
